<svg width="28" height="27" viewBox="0 0 28 27" fill="none" xmlns="http://www.w3.org/2000/svg">
<path d="M0.626007 21.2002C0.627762 22.627 1.21064 23.9948 2.24679 25.0037C3.28294 26.0126 4.68776 26.5802 6.15309 26.5819H21.6289C23.0943 26.5802 24.4991 26.0126 25.5352 25.0037C26.5714 23.9948 27.1543 22.627 27.156 21.2002V11.5133H0.626007V21.2002ZM19.4181 16.3568C19.746 16.3568 20.0666 16.4514 20.3393 16.6288C20.612 16.8062 20.8245 17.0584 20.95 17.3534C21.0755 17.6484 21.1083 17.973 21.0444 18.2862C20.9804 18.5994 20.8225 18.8871 20.5906 19.1129C20.3587 19.3387 20.0632 19.4924 19.7416 19.5547C19.4199 19.617 19.0865 19.585 18.7836 19.4628C18.4806 19.3406 18.2216 19.1337 18.0394 18.8682C17.8572 18.6027 17.76 18.2906 17.76 17.9712C17.76 17.5431 17.9347 17.1324 18.2456 16.8296C18.5566 16.5269 18.9783 16.3568 19.4181 16.3568ZM13.891 16.3568C14.219 16.3568 14.5395 16.4514 14.8122 16.6288C15.0849 16.8062 15.2974 17.0584 15.4229 17.3534C15.5484 17.6484 15.5813 17.973 15.5173 18.2862C15.4533 18.5994 15.2954 18.8871 15.0635 19.1129C14.8316 19.3387 14.5361 19.4924 14.2145 19.5547C13.8928 19.617 13.5595 19.585 13.2565 19.4628C12.9535 19.3406 12.6945 19.1337 12.5123 18.8682C12.3301 18.6027 12.2329 18.2906 12.2329 17.9712C12.2329 17.5431 12.4076 17.1324 12.7185 16.8296C13.0295 16.5269 13.4512 16.3568 13.891 16.3568ZM8.36392 16.3568C8.69187 16.3568 9.01245 16.4514 9.28513 16.6288C9.55781 16.8062 9.77033 17.0584 9.89583 17.3534C10.0213 17.6484 10.0542 17.973 9.99019 18.2862C9.92621 18.5994 9.76829 18.8871 9.5364 19.1129C9.3045 19.3387 9.00905 19.4924 8.68741 19.5547C8.36576 19.617 8.03237 19.585 7.72939 19.4628C7.4264 19.3406 7.16744 19.1337 6.98524 18.8682C6.80305 18.6027 6.7058 18.2906 6.7058 17.9712C6.7058 17.5431 6.88049 17.1324 7.19145 16.8296C7.50241 16.5269 7.92416 16.3568 8.36392 16.3568Z" fill="#262424"/>
<path d="M21.6289 2.84884H20.5235V1.79942C20.5235 1.5211 20.407 1.25417 20.1997 1.05737C19.9924 0.860563 19.7113 0.75 19.4181 0.75C19.1249 0.75 18.8437 0.860563 18.6364 1.05737C18.4291 1.25417 18.3127 1.5211 18.3127 1.79942V2.84884H9.46934V1.79942C9.46934 1.5211 9.35288 1.25417 9.14557 1.05737C8.93826 0.860563 8.6571 0.75 8.36392 0.75C8.07075 0.75 7.78958 0.860563 7.58228 1.05737C7.37497 1.25417 7.25851 1.5211 7.25851 1.79942V2.84884H6.15309C4.68776 2.8505 3.28294 3.40386 2.24679 4.38752C1.21064 5.37118 0.627762 6.70483 0.626007 8.09593L0.626007 9.14535H27.156V8.09593C27.1543 6.70483 26.5714 5.37118 25.5352 4.38752C24.4991 3.40386 23.0943 2.8505 21.6289 2.84884Z" fill="#262424"/>
</svg>
