<svg width="60" height="60" viewBox="0 0 60 60" fill="none" xmlns="http://www.w3.org/2000/svg">
<path d="M60 25.0002C60.0001 24.8177 59.98 24.6358 59.94 24.4577L56.69 9.78771C56.0862 7.00331 54.5434 4.51116 52.3203 2.72916C50.0972 0.947163 47.3291 -0.016341 44.48 0.000209722H15.52C12.6726 -0.014041 9.90683 0.950514 7.68582 2.73233C5.46482 4.51414 3.92349 7.00499 3.32 9.78771L0.0600034 24.4577C0.0200237 24.6358 -9.91497e-05 24.8177 3.42349e-06 25.0002V27.5002C-0.00201359 29.9342 0.887307 32.2847 2.5 34.1077V47.5002C2.50397 50.8142 3.82221 53.9913 6.16555 56.3347C8.5089 58.678 11.686 59.9962 15 60.0002H45C48.314 59.9962 51.4911 58.678 53.8345 56.3347C56.1778 53.9913 57.496 50.8142 57.5 47.5002V34.1077C59.1127 32.2847 60.002 29.9342 60 27.5002V25.0002ZM5 25.2727L8.2 10.8727C8.56261 9.20334 9.48755 7.70915 10.82 6.64015C12.1525 5.57116 13.8117 4.99222 15.52 5.00021H17.5V12.5002C17.5 13.1633 17.7634 13.7991 18.2322 14.268C18.7011 14.7368 19.337 15.0002 20 15.0002C20.663 15.0002 21.2989 14.7368 21.7678 14.268C22.2366 13.7991 22.5 13.1633 22.5 12.5002V5.00021H37.5V12.5002C37.5 13.1633 37.7634 13.7991 38.2322 14.268C38.7011 14.7368 39.337 15.0002 40 15.0002C40.663 15.0002 41.2989 14.7368 41.7678 14.268C42.2366 13.7991 42.5 13.1633 42.5 12.5002V5.00021H44.48C46.1883 4.99222 47.8475 5.57116 49.18 6.64015C50.5125 7.70915 51.4374 9.20334 51.8 10.8727L55 25.2727V27.5002C55 28.8263 54.4732 30.0981 53.5355 31.0357C52.5979 31.9734 51.3261 32.5002 50 32.5002H47.5C46.1739 32.5002 44.9022 31.9734 43.9645 31.0357C43.0268 30.0981 42.5 28.8263 42.5 27.5002C42.5 26.8372 42.2366 26.2013 41.7678 25.7324C41.2989 25.2636 40.663 25.0002 40 25.0002C39.337 25.0002 38.7011 25.2636 38.2322 25.7324C37.7634 26.2013 37.5 26.8372 37.5 27.5002C37.5 28.8263 36.9732 30.0981 36.0355 31.0357C35.0979 31.9734 33.8261 32.5002 32.5 32.5002H27.5C26.1739 32.5002 24.9022 31.9734 23.9645 31.0357C23.0268 30.0981 22.5 28.8263 22.5 27.5002C22.5 26.8372 22.2366 26.2013 21.7678 25.7324C21.2989 25.2636 20.663 25.0002 20 25.0002C19.337 25.0002 18.7011 25.2636 18.2322 25.7324C17.7634 26.2013 17.5 26.8372 17.5 27.5002C17.5 28.8263 16.9732 30.0981 16.0355 31.0357C15.0979 31.9734 13.8261 32.5002 12.5 32.5002H10C8.67392 32.5002 7.40215 31.9734 6.46447 31.0357C5.52679 30.0981 5 28.8263 5 27.5002V25.2727ZM45 55.0002H15C13.0109 55.0002 11.1032 54.21 9.6967 52.8035C8.29018 51.397 7.5 49.4893 7.5 47.5002V37.1827C8.3165 37.3941 9.15658 37.5008 10 37.5002H12.5C13.9195 37.501 15.3229 37.1987 16.6163 36.6137C17.9096 36.0286 19.0632 35.1743 20 34.1077C20.9368 35.1743 22.0904 36.0286 23.3837 36.6137C24.6771 37.1987 26.0805 37.501 27.5 37.5002H32.5C33.9195 37.501 35.3229 37.1987 36.6163 36.6137C37.9096 36.0286 39.0633 35.1743 40 34.1077C40.9368 35.1743 42.0904 36.0286 43.3837 36.6137C44.6771 37.1987 46.0805 37.501 47.5 37.5002H50C50.8434 37.5008 51.6835 37.3941 52.5 37.1827V47.5002C52.5 49.4893 51.7098 51.397 50.3033 52.8035C48.8968 54.21 46.9891 55.0002 45 55.0002Z" fill="black"/>
</svg>
