<svg width="52" height="54" viewBox="0 0 52 54" fill="none" xmlns="http://www.w3.org/2000/svg">
<path d="M45.1374 54C44.2742 53.9977 43.4201 53.8305 42.6243 53.508C41.8285 53.1856 41.1069 52.7142 40.5011 52.1213L26.1511 38.3648L11.8011 52.1303C10.8795 53.0319 9.69756 53.6449 8.40939 53.8893C7.12122 54.1337 5.78657 53.9982 4.57942 53.5005C3.36029 53.0277 2.31736 52.2113 1.58682 51.158C0.856284 50.1048 0.472093 48.8636 0.484418 47.5965V11.25C0.484418 8.26632 1.71358 5.40483 3.90151 3.29505C6.08943 1.18526 9.05689 0 12.1511 0L40.1511 0C41.6832 0 43.2003 0.29099 44.6157 0.856355C46.0312 1.42172 47.3173 2.25039 48.4007 3.29505C49.484 4.33971 50.3434 5.5799 50.9297 6.94481C51.516 8.30972 51.8178 9.77263 51.8178 11.25V47.5965C51.8308 48.8625 51.448 50.103 50.7192 51.1561C49.9904 52.2093 48.9495 53.0262 47.7321 53.5005C46.9103 53.8319 46.0282 54.0017 45.1374 54ZM12.1511 4.5C10.2946 4.5 8.51409 5.21116 7.20134 6.47703C5.88858 7.7429 5.15109 9.45979 5.15109 11.25V47.5965C5.15024 47.9714 5.26465 48.3382 5.47985 48.6504C5.69506 48.9627 6.0014 49.2065 6.3602 49.3509C6.71899 49.4954 7.11413 49.5341 7.49571 49.4621C7.87729 49.3901 8.22819 49.2107 8.50409 48.9465L24.5178 33.5993C24.9549 33.1802 25.5463 32.945 26.1628 32.945C26.7792 32.945 27.3706 33.1802 27.8078 33.5993L43.8028 48.942C44.0787 49.2062 44.4296 49.3856 44.8111 49.4576C45.1927 49.5296 45.5878 49.4909 45.9466 49.3464C46.3054 49.202 46.6118 48.9582 46.827 48.6459C47.0422 48.3337 47.1566 47.9669 47.1558 47.592V11.25C47.1558 9.45979 46.4183 7.7429 45.1055 6.47703C43.7927 5.21116 42.0123 4.5 40.1558 4.5H12.1511Z" fill="black"/>
</svg>
