<svg width="55" height="55" viewBox="0 0 55 55" fill="none" xmlns="http://www.w3.org/2000/svg">
<path d="M54.6073 27.2653C54.6025 25.4131 54.0318 23.6065 52.9716 22.0877C51.9115 20.5689 50.4126 19.4102 48.6756 18.767L48.5891 18.56C46.3319 13.0388 42.0107 8.61545 36.5436 6.23005L35.7951 5.90241C35.1506 4.17071 33.9919 2.67751 32.4746 1.62316C30.9572 0.568806 29.1536 0.00372314 27.3059 0.00372314C25.4581 0.00372314 23.6546 0.568806 22.1372 1.62316C20.6198 2.67751 19.4612 4.17071 18.8167 5.90241L17.8656 6.33017C12.4471 8.79125 8.18237 13.2417 5.95438 18.7602C4.21455 19.3941 2.71086 20.5461 1.64597 22.0609C0.581076 23.5758 0.00616883 25.3807 -0.00126967 27.2324C-0.00870817 29.0841 0.551679 30.8936 1.60437 32.4169C2.65705 33.9403 4.15144 35.1044 5.88612 35.7522L6.17736 36.4348C8.46029 41.7337 12.653 45.98 17.9225 48.3301L18.8167 48.7306C19.463 50.4598 20.6221 51.9503 22.1388 53.0027C23.6556 54.055 25.4576 54.6189 27.3036 54.6189C29.1497 54.6189 30.9517 54.055 32.4684 53.0027C33.9851 51.9503 35.1442 50.4598 35.7905 48.7306L36.6256 48.3597C42.1377 45.895 46.4712 41.3777 48.7052 35.7681C50.4362 35.1182 51.9283 33.9564 52.9827 32.4374C54.037 30.9184 54.6037 29.1143 54.6073 27.2653ZM27.3036 4.55087C28.2036 4.55087 29.0834 4.81776 29.8318 5.31779C30.5801 5.81782 31.1634 6.52853 31.5078 7.36005C31.8523 8.19156 31.9424 9.10654 31.7668 9.98928C31.5912 10.872 31.1578 11.6829 30.5214 12.3193C29.885 12.9557 29.0741 13.3891 28.1914 13.5647C27.3087 13.7403 26.3937 13.6501 25.5622 13.3057C24.7306 12.9613 24.0199 12.378 23.5199 11.6297C23.0199 10.8813 22.753 10.0015 22.753 9.10149C22.753 7.89459 23.2324 6.73713 24.0858 5.88372C24.9392 5.03031 26.0967 4.55087 27.3036 4.55087ZM9.07383 22.7192L9.2604 22.7898L9.28315 22.7329C10.4233 22.8349 11.4773 23.3822 12.2167 24.2561C12.956 25.13 13.3212 26.2601 13.2329 27.4014C13.1446 28.5427 12.6101 29.6032 11.7452 30.3531C10.8802 31.1029 9.75462 31.4816 8.61233 31.4071C7.47005 31.3326 6.40316 30.8109 5.64294 29.9551C4.88273 29.0993 4.49047 27.9783 4.55119 26.8352C4.61191 25.6921 5.12072 24.619 5.96732 23.8485C6.81392 23.078 7.93008 22.6723 9.07383 22.7192ZM27.3036 50.0571C26.4036 50.0571 25.5238 49.7902 24.7754 49.2902C24.0271 48.7901 23.4438 48.0794 23.0994 47.2479C22.755 46.4164 22.6648 45.5014 22.8404 44.6187C23.016 43.7359 23.4494 42.9251 24.0858 42.2887C24.7222 41.6523 25.5331 41.2189 26.4158 41.0433C27.2986 40.8677 28.2135 40.9578 29.0451 41.3022C29.8766 41.6467 30.5873 42.2299 31.0873 42.9783C31.5873 43.7266 31.8542 44.6064 31.8542 45.5065C31.8542 46.7134 31.3748 47.8708 30.5214 48.7242C29.668 49.5776 28.5105 50.0571 27.3036 50.0571ZM36.1614 43.4905C35.7085 41.4792 34.5846 39.6819 32.9745 38.3941C31.3645 37.1063 29.3642 36.4047 27.3025 36.4047C25.2408 36.4047 23.2404 37.1063 21.6304 38.3941C20.0204 39.6819 18.8965 41.4792 18.4436 43.4905C15.3368 41.7952 12.7845 39.2405 11.092 36.1322C13.0971 35.6791 14.8891 34.5592 16.175 32.9556C17.461 31.3519 18.1648 29.3594 18.1714 27.3039C18.178 25.2483 17.487 23.2513 16.2114 21.6394C14.9358 20.0276 13.151 18.8962 11.1489 18.4303C12.8476 15.3657 15.3758 12.8422 18.4436 11.1493C18.8984 13.1584 20.0228 14.9531 21.6322 16.2389C23.2415 17.5246 25.2403 18.225 27.3002 18.225C29.3601 18.225 31.3588 17.5246 32.9682 16.2389C34.5776 14.9531 35.702 13.1584 36.1568 11.1493C39.2223 12.8403 41.7519 15.3574 43.4583 18.4143C41.4501 18.873 39.6575 20.0009 38.3748 21.6127C37.0921 23.2246 36.3956 25.2247 36.3996 27.2846C36.4035 29.3446 37.1078 31.3419 38.3966 32.9488C39.6855 34.5557 41.4825 35.6767 43.4924 36.1276C41.7945 39.226 39.2524 41.7792 36.1614 43.4905ZM45.5061 31.8159C44.6061 31.8159 43.7262 31.549 42.9779 31.049C42.2295 30.549 41.6463 29.8383 41.3019 29.0067C40.9574 28.1752 40.8673 27.2602 41.0429 26.3775C41.2185 25.4948 41.6519 24.6839 42.2883 24.0475C42.9247 23.4111 43.7356 22.9777 44.6183 22.8021C45.501 22.6265 46.416 22.7166 47.2475 23.0611C48.0791 23.4055 48.7898 23.9888 49.2898 24.7371C49.7898 25.4854 50.0567 26.3653 50.0567 27.2653C50.0567 28.4722 49.5773 29.6297 48.7239 30.4831C47.8705 31.3365 46.713 31.8159 45.5061 31.8159Z" fill="black"/>
</svg>
