<svg width="60" height="58" viewBox="0 0 60 58" fill="none" xmlns="http://www.w3.org/2000/svg">
<path d="M57.8025 21.9167L38.84 3.5839C36.4931 1.32187 33.3142 0.0516357 30 0.0516357C26.6859 0.0516357 23.5069 1.32187 21.16 3.5839L2.19753 21.9167C1.49859 22.588 0.944455 23.3868 0.567236 24.2667C0.190018 25.1465 -0.002776 26.09 3.01987e-05 27.0425V50.7669C3.01987e-05 52.6897 0.790206 54.5338 2.19673 55.8934C3.60325 57.2531 5.51091 58.0169 7.50003 58.0169H52.5C54.4891 58.0169 56.3968 57.2531 57.8033 55.8934C59.2098 54.5338 60 52.6897 60 50.7669V27.0425C60.0028 26.09 59.81 25.1465 59.4328 24.2667C59.0556 23.3868 58.5015 22.588 57.8025 21.9167ZM37.5 53.1836H22.5V43.6764C22.5 41.7536 23.2902 39.9095 24.6967 38.5499C26.1032 37.1902 28.0109 36.4264 30 36.4264C31.9892 36.4264 33.8968 37.1902 35.3033 38.5499C36.7099 39.9095 37.5 41.7536 37.5 43.6764V53.1836ZM55 50.7669C55 51.4078 54.7366 52.0225 54.2678 52.4757C53.799 52.929 53.1631 53.1836 52.5 53.1836H42.5V43.6764C42.5 40.4717 41.1831 37.3983 38.8389 35.1322C36.4947 32.8661 33.3152 31.5931 30 31.5931C26.6848 31.5931 23.5054 32.8661 21.1612 35.1322C18.817 37.3983 17.5 40.4717 17.5 43.6764V53.1836H7.50003C6.83699 53.1836 6.2011 52.929 5.73226 52.4757C5.26342 52.0225 5.00003 51.4078 5.00003 50.7669V27.0425C5.00235 26.402 5.2655 25.7882 5.73253 25.3339L24.695 7.00832C26.1043 5.65239 28.0117 4.89118 30 4.89118C31.9884 4.89118 33.8958 5.65239 35.305 7.00832L54.2675 25.3412C54.7327 25.7937 54.9957 26.4045 55 27.0425V50.7669Z" fill="black"/>
</svg>
