<?xml version="1.0" encoding="utf-8"?>
<!-- Generator: Adobe Illustrator 27.5.0, SVG Export Plug-In . SVG Version: 6.00 Build 0)  -->
<svg version="1.1" xmlns="http://www.w3.org/2000/svg" xmlns:xlink="http://www.w3.org/1999/xlink" x="0px" y="0px"
	 viewBox="0 0 750 500" style="enable-background:new 0 0 750 500;" xml:space="preserve">
<g id="BACKGROUND">
	<rect style="fill:#FFFFFF;" width="750" height="500"/>
</g>
<g id="OBJECTS" xmlns:serif="http://www.serif.com/">
	<g>
		<ellipse style="fill:#B4CFD6;" cx="587.068" cy="438.841" rx="93.465" ry="8.694"/>
		<g>
			<g>
				<g>
					<path style="fill:#EF7D78;" d="M635.898,85.796c0,0-5.154,5.494-3.008,7.276c2.146,1.781,10.781,7.487,12.176,3.727
						L635.898,85.796z"/>
					<path style="fill:#FDA092;" d="M662.15,97.803c0,0,0.013-11.543-15.64-20.366c0,0-6.348-6.803-10.278-7.747
						s-12.273,0.169-11.791,2.94c0.482,2.771,5.558,3.088,9.26,3.22c3.702,0.131,4.45,4.094,4.45,4.094s-5.159,5.088-4.45,7.613
						s3.202,3.183,3.202,3.183s0.379,2.426,4.529,3.376c0,0,0.59,2.068,3.012,3.7c1.08,0.728,3.663,0.952,4.838,0.35
						C649.282,98.166,650.171,108.597,662.15,97.803z"/>
					
						<path style="fill:none;stroke:#D04949;stroke-width:1.32;stroke-linecap:round;stroke-linejoin:round;stroke-miterlimit:1.5;" d="
						M637.349,89.775c1.578-3.339,3.596-5.994,6.97-8.578"/>
					
						<path style="fill:none;stroke:#D04949;stroke-width:1.32;stroke-linecap:round;stroke-linejoin:round;stroke-miterlimit:1.5;" d="
						M641.684,93.072c1.857-3.449,3.675-5.307,6.765-7.586"/>
					
						<path style="fill:none;stroke:#D04949;stroke-width:1.32;stroke-linecap:round;stroke-linejoin:round;stroke-miterlimit:1.5;" d="
						M648.449,94.188c0,0,2.775,1.911,5.239,1.22"/>
					
						<path style="fill:none;stroke:#D04949;stroke-width:1.32;stroke-linecap:round;stroke-linejoin:round;stroke-miterlimit:1.5;" d="
						M651.068,95.558l-1.527,2.245"/>
				</g>
				<path style="fill:#FDA092;" d="M659.151,100.116l2.999-3.317c0,0,26.51,44.811,22.589,55.831
					c-2.607,7.328-32.9,6.068-32.9,6.068l-3.281-28.956l13.225,1.396l-11.478-30.227L659.151,100.116L659.151,100.116z"/>
				<path style="fill:#EF7D78;" d="M657.014,130.634l10.296,27.778c-7.897,0.601-15.471,0.286-15.471,0.286l-3.281-28.956
					L657.014,130.634z"/>
			</g>
			<g>
				<g>
					<g>
						<path style="fill:#3D6A9F;" d="M558.206,408.741c-4.346,9.763-7.576,20.015-7.796,31.585l40.865,0.202
							c0.176-10.933-4.467-20.71-11.647-29.115L558.206,408.741z"/>
						<path style="fill:#D4EFF9;" d="M590.31,431.496l-39.206,0.428c-0.398,2.728-0.64,5.525-0.694,8.403l40.865,0.202
							C591.325,437.422,590.986,434.41,590.31,431.496L590.31,431.496z"/>
					</g>
					<g>
						<path style="fill:#FDA092;" d="M591.275,317.086l-11.94,96.767c-7.303,3.202-14.718,2.686-22.219-0.7l6.081-95.831
							L591.275,317.086z"/>
						<path style="fill:#EF7D78;" d="M589.468,331.729c-8.581-0.786-17.627-2.505-26.831-5.576l0.56-8.831l28.078-0.236
							L589.468,331.729L589.468,331.729z"/>
					</g>
				</g>
				<g>
					<g>
						<path style="fill:#3D6A9F;" d="M603.53,411.414l20.914,2.335c12.907,2.117,20.724,8.045,25.438,21.865l-52.885-0.421
							C596.719,427.434,598.948,417.68,603.53,411.414z"/>
						<path style="fill:#D4EFF9;" d="M597.25,429.137l50.887,2.032c0.624,1.381,1.205,2.861,1.745,4.445l-52.885-0.421
							C596.928,433.267,597.013,431.22,597.25,429.137L597.25,429.137z"/>
					</g>
					<g>
						<path style="fill:#FDA092;" d="M632.952,311.953l-8.479,103.037c-7.527,1.729-14.804,1.13-21.911-1.06l2.424-96.607
							L632.952,311.953z"/>
						<path style="fill:#EF7D78;" d="M631.555,328.922c-7.431,1.642-16.635,3.05-26.943,3.273l0.374-14.872l27.966-5.37
							L631.555,328.922L631.555,328.922z"/>
					</g>
				</g>
				<g>
					<path style="fill:#E4B586;" d="M560.398,247.514l-6.743,70.222c14.947,4.049,30.706,5.633,47.245,4.85l0.367-2.782
						c12.803,2.43,25.848,4.122,39.025,2.872l-2.2-76.036C614.249,251.06,587.375,249.338,560.398,247.514L560.398,247.514z"/>
					<path style="fill:#CF9168;" d="M638.207,250.615c-17.509,4.093-50.013,9.785-78.551,4.625l0.742-7.726
						c26.977,1.824,53.851,3.546,77.694-0.874L638.207,250.615L638.207,250.615z"/>
					<path style="fill:#CF9168;" d="M601.309,319.811l4.022-39.902l12.426-1.543c-5.429,2.176-5.862,36.87,4.678,44.378
						l-1.796-0.124c-4.872-0.51-4.549-0.466-9.726-1.167L601.309,319.811L601.309,319.811z"/>
				</g>
				<path style="fill:#B0AB1E;" d="M583.137,267.026l2.101,0.051c1.357-1.698,2.855-3.346,4.369-4.801
					c-1.787,1.066-3.749,2.458-5.728,4.102L583.137,267.026z"/>
				<path style="fill:#B0AB1E;" d="M595.622,266.841l-1.471-2.654l-0.493-0.808l-0.276-0.488l-0.461-0.721l-0.834-1.367
					l-1.144-1.722l-0.422-0.659l-0.226-0.316c-0.848-1.25-1.701-2.435-2.546-3.559l-0.1-0.141l-0.39-0.493l-1.409-1.823
					l-0.665-0.804l-0.343-0.436l-0.387-0.447l-0.604-0.731l-1.366-1.553l-0.311-0.361l-0.233-0.258l-0.363-0.379l-1.857-1.986
					l-0.861-0.855l-0.36-0.376l-0.377-0.356c-0.887-0.88-1.686-1.622-2.366-2.232l-2.47-2.088
					c8.512,5.586,14.711,13.696,18.782,20.408c1.64,2.704,2.934,5.181,3.873,7.187L595.622,266.841L595.622,266.841z"/>
				<path style="fill:#B0AB1E;" d="M553.715,262.701l-1.976,2.393l2.474-2.996l0.36-0.395l1.305-1.463l0.61-0.64l0.318-0.349
					l0.353-0.354l0.556-0.582l1.247-1.225l0.284-0.285l0.213-0.203l0.329-0.296l1.685-1.552l0.776-0.661l0.325-0.293l0.339-0.273
					c0.799-0.68,1.515-1.247,2.122-1.71l2.196-1.567c-5.39,2.865-9.895,7.08-13.439,11.296l-0.137,1.141L553.715,262.701
					L553.715,262.701z"/>
				<path style="fill:#B0AB1E;" d="M597.65,261.712l-0.007,0.306l-1.705,0.014L597.65,261.712L597.65,261.712z"/>
				<path style="fill:#B0AB1E;" d="M597.713,258.811l-0.001,0.035l-0.183,0.05L597.713,258.811L597.713,258.811z"/>
				<path style="fill:#B0AB1E;" d="M628.608,263.993l0.251-0.027l0.066-3.444l0.054-0.896l0.014-0.533l0.067-0.807l0.092-1.516
					l0.195-1.946l0.061-0.739l0.049-0.363c0.156-1.419,0.345-2.784,0.555-4.093l0.022-0.162l0.107-0.582l0.372-2.138l0.201-0.96
					l0.095-0.513l0.125-0.541l0.182-0.873l0.457-1.886l0.101-0.436l0.081-0.316l0.136-0.473l0.676-2.455l0.343-1.082l0.135-0.469
					l0.158-0.457c0.353-1.114,0.694-2.073,0.994-2.87l1.146-2.787c-4.665,8.204-6.263,17.688-6.695,25.121
					C628.461,258.975,628.493,261.814,628.608,263.993L628.608,263.993z"/>
			</g>
			<path style="fill:#EAEAEA;" d="M635.34,262.082c-0.34,0.08-0.68,0.16-1.04,0.24c-13.81,3.07-36.57,1.95-60.97,0.04
				c-0.38-0.03-0.77-0.06-1.15-0.09v-130l59.75-1.81l2.25,86.95l0.61,23.53L635.34,262.082z"/>
			<path style="fill:#DFDFDF;" d="M635.34,217.002l-0.55,23.94l-0.49,21.38c-13.81,3.07-36.57,1.95-60.97,0.04l11.7-97.69
				c0,0,15.54,63.59,49.15,52.74C634.56,217.282,634.95,217.142,635.34,217.002z"/>
			<g>
				<g>
					<path style="fill:#FDA092;" d="M586.865,112.383c0,0,2.282,11.334-2.742,14.743c0,0,7.43,19.079,22.412,16.408
						c14.982-2.671,9.025-15.528,9.025-15.528l-5.406-3.004c0,0-0.905-1.693-1.27-7.752L586.865,112.383z"/>
					<path style="fill:#EF7D78;" d="M587.359,119.107c4.739,5.705,14.79,14.611,28.149,8.87l-5.354-2.975
						c0,0-0.905-1.693-1.27-7.752l-22.019-4.867C586.865,112.383,587.511,115.591,587.359,119.107z"/>
				</g>
				<g>
					<path style="fill:#EF7D78;" d="M624.425,89.263c4.271-0.622,8.142,1.641,8.64,5.05c0.498,3.409-2.565,6.682-6.836,7.304
						c-4.27,0.622-8.142-1.64-8.64-5.049C617.091,93.159,620.154,89.886,624.425,89.263z"/>
					<path style="fill:#FDA092;" d="M594.197,60.746c22.78-3.047,27.32,7.698,30.135,24.006
						c2.816,16.307-1.946,32.969-15.587,35.303c-14.936,2.555-27.313-8.307-30.128-24.615
						C575.802,79.133,580.48,62.581,594.197,60.746L594.197,60.746z"/>
					<g>
						<path style="fill:#573333;" d="M574.783,103.079c0,0-8.209-16.921-4.738-29.87c3.472-12.949,13.472-28.291,18.903-28.097
							c5.432,0.195,2.756,5.18,2.756,5.18s8.084-7.748,15.363-6.59c7.28,1.157,4.181,4.872,4.181,4.872s8.999-2.331,12.227,1.588
							c3.228,3.919-1.12,10.212-1.12,10.212s4.897-0.906,6.901,3.315c2.111,4.443-2.981,9.955-2.981,9.955
							c0.685,7.644,0.016,15.792-1.305,23.499c-0.464-9.297-0.801-15.362-4.096-24.053c-10.899-1.083-22.266-0.152-34.767,1.717
							l-0.826,13.649c-1.567,5.807-3.43,9.738-2.122,14.614L574.783,103.079L574.783,103.079z"/>
						<path style="fill:#784E47;" d="M578.127,55.207c3.79-5.946,7.946-10.198,10.821-10.095c5.432,0.195,2.756,5.18,2.756,5.18
							s8.084-7.748,15.363-6.59c7.28,1.157,4.181,4.872,4.181,4.872s8.999-2.331,12.227,1.588c3.228,3.919-1.12,10.212-1.12,10.212
							s4.897-0.906,6.901,3.315c0.386,0.811,0.531,1.657,0.511,2.499c-3.499-5.218-8.898-4.048-8.898-4.048
							c1.81-17.055-10.708-10.648-10.708-10.648c-2.851-11.645-18.944,2.341-18.944,2.341
							C589.652,47.647,583.122,51.284,578.127,55.207L578.127,55.207z"/>
					</g>
					<path style="fill:#E43B3F;" d="M585.747,67.926l-1.815-0.322l-6.241,35.153l1.815,0.322L585.747,67.926z"/>
					<g>
						<g>
							<path style="fill:#E43B3F;" d="M602.653,67.568c-0.159-0.662-0.578-1.297-1.164-1.765c-0.586-0.468-1.291-0.731-1.96-0.731
								c-3.743,0-10.724,0-14.467,0c-0.669,0-1.247,0.263-1.607,0.731c-0.361,0.468-0.474,1.103-0.314,1.765
								c0.303,1.258,0.692,2.872,1.098,4.559c1.285,5.33,6.694,9.652,12.082,9.652c0,0,0,0,0.001,0c5.387,0,8.714-4.322,7.43-9.652
								C603.345,70.44,602.956,68.826,602.653,67.568L602.653,67.568z"/>
							<path style="fill:#214E78;" d="M601.634,69.877c-0.289-1.197-1.504-2.168-2.714-2.168h-11.978
								c-1.21,0-1.958,0.971-1.669,2.168c0.146,0.606,0.314,1.304,0.492,2.042c1.077,4.47,5.612,8.093,10.129,8.093
								c0.001,0,0.002,0,0.003,0c4.517,0,7.306-3.623,6.229-8.093C601.948,71.181,601.78,70.483,601.634,69.877z"/>
							<path style="fill:#CADFF4;" d="M599.912,69.442c-0.108-0.445-0.559-0.806-1.009-0.806c-1.656,0-5.4,0-7.056,0
								c-0.45,0-0.728,0.361-0.62,0.806c0.011,0.045,0.022,0.091,0.033,0.137c0.107,0.444,0.558,0.805,1.008,0.805
								c1.656,0,5.4,0,7.056,0c0.45,0,0.728-0.361,0.621-0.805C599.934,69.533,599.923,69.487,599.912,69.442z"/>
						</g>
						<g>
							<path style="fill:#E43B3F;" d="M625.512,67.568c-0.16-0.662-0.579-1.297-1.165-1.765c-0.586-0.468-1.291-0.731-1.96-0.731
								c-3.742,0-10.724,0-14.466,0c-0.669,0-1.248,0.263-1.608,0.731c-0.36,0.468-0.473,1.103-0.314,1.765
								c0.303,1.258,0.692,2.872,1.099,4.559c1.284,5.33,6.693,9.652,12.081,9.652h0.001c5.388,0,8.714-4.322,7.43-9.652
								C626.204,70.44,625.815,68.826,625.512,67.568L625.512,67.568z"/>
							<path style="fill:#214E78;" d="M624.492,69.877c-0.288-1.197-1.503-2.168-2.713-2.168H609.8c-1.21,0-1.957,0.971-1.669,2.168
								c0.146,0.606,0.314,1.304,0.492,2.042c1.077,4.47,5.612,8.093,10.129,8.093c0.001,0,0.002,0,0.003,0
								c4.517,0,7.306-3.623,6.229-8.093C624.806,71.181,624.638,70.483,624.492,69.877z"/>
							<path style="fill:#CADFF4;" d="M622.77,69.442c-0.107-0.445-0.559-0.806-1.008-0.806c-1.657,0-5.401,0-7.057,0
								c-0.45,0-0.727,0.361-0.62,0.806c0.011,0.045,0.022,0.091,0.033,0.137c0.107,0.444,0.559,0.805,1.008,0.805
								c1.657,0,5.401,0,7.057,0c0.449,0,0.727-0.361,0.62-0.805C622.792,69.533,622.781,69.487,622.77,69.442z"/>
						</g>
						<path style="fill:#E43B3F;" d="M608.234,65.507c-2.82-0.837-5.575-0.824-8.266,0v2.202c2.9-0.906,5.658-0.92,8.266,0V65.507z"
							/>
					</g>
					<path style="fill:#FDA092;" d="M579.293,91.603c4.632,0.478,8.089,3.796,7.716,7.407c-0.373,3.61-4.436,6.154-9.068,5.677
						c-4.632-0.478-8.089-3.796-7.717-7.407C570.597,93.67,574.661,91.126,579.293,91.603L579.293,91.603z"/>
					<g>
						<path style="fill:#573333;" d="M601.658,82.957c-6.329-1.598-10.132,0.994-11.914,5.499c3.19-1.984,7.107-3.39,11.488-2.686
							L601.658,82.957z"/>
						<path style="fill:#573333;" d="M613.805,82.483c4.924-1.251,8.997-0.868,9.365,4.419c-2.428-2.672-6.392-2.534-9.77-1.132
							L613.805,82.483z"/>
						
							<path style="fill:none;stroke:#D04949;stroke-width:1.27;stroke-linecap:round;stroke-linejoin:round;stroke-miterlimit:1.5;" d="
							M612.76,86.902c-1.64,6.259,2.024,10.966,2.2,12.391c0.181,1.46-1.18,3.091-2.48,4.125"/>
						<ellipse style="fill:#30385B;" cx="597.355" cy="93.854" rx="1.444" ry="2.206"/>
						<path style="fill:#30385B;" d="M617.775,91.648c0.797,0,1.444,0.988,1.444,2.206s-0.646,2.206-1.444,2.206
							c-0.798,0-1.444-0.988-1.444-2.206S616.977,91.648,617.775,91.648z"/>
						<path style="fill:#FFFFFF;" d="M612.338,106.73c-3.897,0.336-8.201-1.209-12.626-3.312c0,0-1.55,8.141,3.961,9.749
							C611.863,115.555,612.338,106.73,612.338,106.73z"/>
					</g>
				</g>
			</g>
			<g>
				<path style="fill:#B0AB1E;" d="M586.001,123.495c10.912,29.11,13.459,80.284,11.539,143.236
					c-13.929,1.075-28.481-0.009-43.885-4.044c5.753-43.511,7.058-86.507,6.539-127.044
					C567.737,130.341,572.571,127.533,586.001,123.495L586.001,123.495z"/>
				<path style="fill:#DFD153;" d="M593.846,156.326c0,0-0.095-19.618-7.505-33.744c0,0-8.501,1.652-11.668,5.353l1.847,20.711
					C576.52,148.646,587.689,147.9,593.846,156.326L593.846,156.326z"/>
				<g>
					<path style="fill:#E3D85C;" d="M580.958,266.945c-1.219-1.594-2.268-3.597-3.183-5.788l1.79-1.098l1.807-0.967l-1.955,0.654
						c-0.634,0.248-1.257,0.525-1.88,0.826l-0.801-2.09c-0.283-0.855-0.566-1.709-0.849-2.563l-0.532-1.949
						c1.367-0.312,2.775-0.483,4.18-0.526l2.102,0.029c0.689,0.07,1.378,0.139,2.067,0.209l-2.169-0.73
						c-2.188-0.644-4.432-1.013-6.722-0.965l-0.335-1.226l-0.95-4.366c1.296-0.031,2.601,0.1,3.858,0.341l-1.995-0.708l-2.037-0.505
						c-0.825-4.271-1.178-7.349-1.178-7.349c2.2-0.083,5.221,0.549,8.484,1.706l0.038,1.484l0.145,1.496l0.244-2.835
						c2.721,0.984,5.59,2.317,8.283,3.882l-0.58,1.645l-0.456,1.709c0.427-1.03,0.925-2.079,1.475-3.101l1.91,1.192l1.079,0.754
						c-1.32,1.887-2.386,3.965-3.276,6.143c1.252-1.919,2.764-3.736,4.463-5.279c1.477,1.119,2.808,2.304,3.909,3.53l-0.181,8.312
						l-0.184,0.085l0.183-0.05l-0.062,2.865l-1.712,0.32l1.705-0.014l-0.103,4.713l-1.598,0.092
						c-0.939-2.006-2.233-4.483-3.873-7.187c-4.071-6.712-10.27-14.822-18.782-20.408l2.47,2.088c0.68,0.61,1.479,1.352,2.366,2.232
						l0.377,0.356l0.36,0.376l0.861,0.855l1.857,1.986l0.363,0.379l0.233,0.258l0.311,0.361l1.366,1.553l0.604,0.731l0.387,0.447
						l0.343,0.436l0.665,0.804l1.409,1.823l0.39,0.493l0.1,0.141c0.845,1.124,1.698,2.309,2.546,3.559l0.226,0.316l0.422,0.659
						l1.144,1.722l0.834,1.367l0.461,0.721l0.276,0.488l0.493,0.808l1.471,2.654c-3.422,0.22-6.882,0.308-10.384,0.236
						c1.357-1.698,2.855-3.346,4.369-4.801c-1.787,1.066-3.749,2.458-5.728,4.102l-0.742,0.648l-1.542-0.038L580.958,266.945
						L580.958,266.945z"/>
					<path style="fill:#E3D85C;" d="M558.562,210.936c1.227-0.868,2.674-1.605,4.239-2.226c0.946,1.81,1.678,3.807,2.182,5.822
						c-0.157-2.14-0.476-4.242-1.041-6.247l1.029-0.36l1.787-0.511c0.177,1.041,0.307,2.091,0.386,3.104l0.066-1.612l-0.047-1.591
						c2.491-0.621,5.063-0.991,7.431-1.099l-0.509,2.535l0.483-1.262l0.396-1.281c2.835-0.108,5.352,0.173,7.051,0.851
						c0,0-1.037,2.581-2.737,6.07l-1.716-0.121l-1.734,0.067c1.042,0.136,2.093,0.381,3.099,0.765l-1.822,3.538l-0.565,0.974
						c-1.777-0.672-3.621-0.968-5.49-1.01l-1.875,0.038c0.555,0.129,1.111,0.258,1.666,0.387l1.65,0.553
						c1.087,0.425,2.145,0.961,3.136,1.609l-0.898,1.549c-0.432,0.666-0.864,1.331-1.296,1.997l-1.142,1.598
						c-0.413-0.434-0.831-0.846-1.266-1.236l-1.365-1.108l1.173,1.339l1.127,1.449c-1.578,2.077-3.247,3.839-4.94,4.91l-1.12-2.047
						c-1.14-1.976-2.329-3.727-3.461-5.146c1.218,2.491,2.306,5.343,3.151,7.994l-0.504,0.235c-0.414,0.136-0.828,0.271-1.242,0.407
						l-1.189,0.242c-0.088-0.891-0.199-1.756-0.37-2.612l-0.384-1.801l0.158,2.19c0.034,0.757,0.048,1.522,0.044,2.28
						c-1.85,0.194-3.599-0.069-5.071-0.486l0.145-1.503l0.427-5.677l0.812-0.857l0.585-0.568l0.336-0.349l0.539-0.5l0.989-0.96
						l1.32-1.183l0.492-0.458l0.255-0.212c0.971-0.854,1.93-1.651,2.868-2.397l0.113-0.094l0.427-0.322l1.551-1.199l0.718-0.517
						l0.376-0.284l0.413-0.283l0.653-0.47l1.45-0.975l0.333-0.228l0.246-0.161l0.377-0.23l1.942-1.216l0.884-0.508l0.374-0.228
						l0.383-0.206c0.91-0.522,1.718-0.947,2.4-1.291l2.446-1.137c-8.031,2.518-14.879,7.869-19.719,12.589
						c-1.335,1.303-2.517,2.557-3.522,3.697l0.744-9.899L558.562,210.936L558.562,210.936z"/>
					<path style="fill:#E3D85C;" d="M554.947,251.915c1.933-0.849,3.933-1.493,5.832-1.938l-0.036,2.585l0.244-1.329l0.154-1.332
						c2.767-0.628,5.293-0.813,7.087-0.459c0,0-0.545,2.727-1.576,6.469l-1.709,0.197l-1.692,0.384
						c1.049-0.057,2.128-0.01,3.187,0.183l-1.141,3.812l-0.376,1.062c-1.87-0.334-3.738-0.287-5.582,0.015l-1.837,0.382
						c0.57,0.025,1.14,0.05,1.709,0.074l1.723,0.241c1.147,0.218,2.285,0.55,3.378,1.005l-0.583,1.647l-4.337-0.85l-5.677-1.362
						l0.498-0.603l0.36-0.395l1.305-1.463l0.61-0.64l0.318-0.349l0.353-0.354l0.556-0.582l1.247-1.225l0.284-0.285l0.213-0.203
						l0.329-0.296l1.685-1.552l0.776-0.661l0.325-0.293l0.339-0.273c0.799-0.68,1.515-1.247,2.122-1.71l2.196-1.567
						c-5.39,2.865-9.895,7.08-13.439,11.296L554.947,251.915L554.947,251.915z"/>
					<path style="fill:#E3D85C;" d="M583.646,170.96c-1.807-0.645-3.493-0.952-4.737-0.818c0,0,0.108,2.016,0.447,4.8l1.134,0.259
						l1.105,0.395c-0.703-0.113-1.435-0.153-2.167-0.085l0.407,2.843l0.152,0.795c1.293-0.114,2.548,0.048,3.764,0.393l1.202,0.403
						c-0.387-0.021-0.773-0.042-1.16-0.063l-1.185,0.057c-0.794,0.079-1.594,0.242-2.374,0.498l0.242,1.264
						c0.134,0.553,0.269,1.106,0.403,1.659l0.39,1.348c0.36-0.221,0.72-0.426,1.085-0.612l1.123-0.502l-1.049,0.703l-1.043,0.788
						c0.567,1.771,1.262,3.34,2.122,4.429l1.167-1.209c1.166-1.155,2.314-2.143,3.354-2.91c-1.328,1.5-2.65,3.28-3.773,4.967
						l0.275,0.266c0.237,0.178,0.475,0.356,0.713,0.534l0.715,0.408c0.25-0.607,0.51-1.19,0.806-1.756l0.64-1.184l-0.578,1.502
						c-0.187,0.523-0.362,1.057-0.525,1.588c3.148,1.385,6.548,0.227,6.548,0.227s1.433-3.337,1.882-6.969l-0.443-0.023
						c-0.877-0.09-1.784-0.059-2.68,0.05c1.07-0.345,2.141-0.609,3.197-0.732l0.054-0.717c0.003-0.343,0.006-0.686,0.009-1.028
						l-0.029-0.408l-1.136,0.345c-0.368,0.139-0.736,0.278-1.104,0.416c0.731-0.485,1.454-0.854,2.21-1.178
						c-0.066-0.728-0.211-1.427-0.448-2.073c-0.587-1.599-1.833-3.134-3.408-4.48c-1.004,1.078-1.911,2.33-2.675,3.64
						c0.567-1.467,1.23-2.876,2.031-4.166l-0.586-0.459l-1.042-0.716c-0.341,0.693-0.654,1.403-0.925,2.097l0.308-1.143l0.376-1.104
						c-1.473-0.935-3.052-1.709-4.558-2.26l-0.222,1.878l-0.037-0.981L583.646,170.96L583.646,170.96z M580.837,172.083
						l-1.332-1.287c4.637,3.374,7.893,8.494,9.991,12.77c2.097,4.276,3.035,7.709,3.035,7.709l-0.97-2.471l-1.026-2.314
						l-0.254-0.515l-0.141-0.312l-0.239-0.458l-0.43-0.871l-0.594-1.093l-0.219-0.419l-0.118-0.2
						c-0.441-0.793-0.887-1.543-1.33-2.254l-0.053-0.088l-0.205-0.312l-0.741-1.15l-0.351-0.506l-0.181-0.274l-0.205-0.281
						l-0.319-0.46l-0.724-0.974l-0.165-0.226l-0.055-0.07l-0.069-0.092l-0.194-0.237l-0.988-1.241l-0.461-0.533l-0.192-0.235
						l-0.202-0.22C581.631,172.921,581.202,172.461,580.837,172.083L580.837,172.083z"/>
				</g>
			</g>
			<path style="fill:#B0AB1E;" d="M557.645,223.956l-0.041,0.547l0.812-0.857l0.585-0.568l0.336-0.349l0.539-0.5l0.989-0.96
				l1.32-1.183l0.492-0.458l0.255-0.212c0.971-0.854,1.93-1.651,2.868-2.397l0.113-0.094l0.427-0.322l1.551-1.199l0.718-0.517
				l0.376-0.284l0.413-0.283l0.653-0.47l1.45-0.975l0.333-0.228l0.246-0.161l0.377-0.23l1.942-1.216l0.884-0.508l0.374-0.228
				l0.383-0.206c0.91-0.522,1.718-0.947,2.4-1.291l2.446-1.137c-8.031,2.518-14.879,7.869-19.719,12.589
				C559.832,221.562,558.65,222.816,557.645,223.956L557.645,223.956z"/>
			<g>
				<path style="fill:#D4C548;" d="M624.421,131.013v-6.011l31.539,4.432l4.587,37.891c-10.954,2.064-20.774,3.917-27.548,4.964
					L624.421,131.013L624.421,131.013z"/>
				<path style="fill:#B0AB1E;" d="M610.496,123.495c13.753,49.235,17.47,96.609,16.348,140.69
					c6.507-0.541,11.637-1.254,15.256-2.154c4.086-51.789-1.951-93.754-7.864-135.547
					C626.105,124.957,618.594,124.073,610.496,123.495L610.496,123.495z"/>
				<path style="fill:#DFD153;" d="M609.307,122.582l9.143,33.744c0,0,2.773-7.664,11.882-11.611c0,0-7.374-17.215-9.167-19.713
					C619.371,122.504,611.786,122.157,609.307,122.582L609.307,122.582z"/>
				<g>
					<path style="fill:#E3D85C;" d="M626.824,237.063l2.319-2.669l1.468,2.366l-0.544-1.356l-0.629-1.304
						c2.227-2.289,4.484-4.028,6.369-4.823c0,0,1.074,2.813,2.282,6.847l-1.486,1.24l-1.361,1.401
						c0.949-0.704,1.986-1.332,3.09-1.816l1.145,4.167l0.264,1.196c-1.945,0.86-3.666,2.064-5.218,3.485l-1.497,1.489
						c0.548-0.332,1.095-0.664,1.643-0.996l1.753-0.853c1.201-0.516,2.46-0.922,3.747-1.189l0.42,1.902
						c0.143,0.853,0.286,1.707,0.429,2.56l0.257,2.13c-0.658-0.015-1.304-0.011-1.948,0.024l-1.933,0.202l1.948,0.128l1.994,0.248
						c0.259,2.842,0.209,5.51-0.373,7.659l-2.431-0.72c-2.396-0.649-4.664-1.085-6.64-1.307c2.842,0.988,5.846,2.359,8.503,3.761
						l-0.236,0.576l-0.649,1.173l-0.406,0.087l-1.574,0.254l-1.108-0.862l-1.651-1.101l1.755,1.579l0.468,0.47l-1.439,0.232
						l-6.696,0.724l0.066-3.444l0.054-0.896l0.014-0.533l0.067-0.807l0.092-1.516l0.195-1.946l0.061-0.739l0.049-0.363
						c0.156-1.419,0.345-2.784,0.555-4.093l0.022-0.162l0.107-0.582l0.372-2.138l0.201-0.96l0.095-0.513l0.125-0.541l0.182-0.873
						l0.457-1.886l0.101-0.436l0.081-0.316l0.136-0.473l0.676-2.455l0.343-1.082l0.135-0.469l0.158-0.457
						c0.353-1.114,0.694-2.073,0.994-2.87l1.146-2.787c-4.665,8.204-6.263,17.688-6.695,25.121c-0.187,3.225-0.155,6.064-0.04,8.243
						l-1.764,0.191l0.177-16.11l0.478,0.257l-0.476-0.39l0.005-0.439L626.824,237.063L626.824,237.063z"/>
					<path style="fill:#E3D85C;" d="M631.424,166.134c1.44-0.877,2.851-1.413,3.975-1.461c0,0,0.367,1.957,0.707,4.686l-0.937,0.411
						l-0.88,0.537c0.591-0.209,1.225-0.351,1.885-0.39l0.294,2.796l0.048,0.788c-1.162,0.073-2.228,0.408-3.217,0.913l-0.964,0.559
						c0.335-0.075,0.67-0.15,1.005-0.226l1.054-0.113c0.716-0.037,1.456,0.007,2.201,0.142l0.076,1.252
						c0.009,0.552,0.018,1.103,0.027,1.655l-0.033,1.353c-0.368-0.161-0.731-0.307-1.095-0.435l-1.101-0.323l1.082,0.527
						l1.097,0.611c-0.092,1.786-0.342,3.396-0.848,4.567l-1.304-0.998c-1.289-0.947-2.524-1.735-3.614-2.326
						c1.511,1.256,3.081,2.782,4.454,4.247l-0.18,0.295c-0.168,0.205-0.336,0.41-0.504,0.616l-0.535,0.495
						c-0.359-0.549-0.721-1.074-1.111-1.577l-0.834-1.049l0.852,1.364c0.285,0.478,0.561,0.966,0.825,1.455
						c-2.448,1.781-5.701,1.15-5.701,1.15s-2.025-3.01-3.251-6.444l0.384-0.085c0.749-0.212,1.553-0.311,2.366-0.333
						c-1.019-0.18-2.021-0.282-2.977-0.25l-0.212-0.684c-0.081-0.329-0.162-0.658-0.243-0.988l-0.068-0.397l1.077,0.171
						c0.355,0.081,0.711,0.163,1.066,0.244c-0.754-0.364-1.475-0.616-2.213-0.82c-0.108-0.711-0.142-1.405-0.081-2.061
						c0.149-1.624,0.892-3.279,1.968-4.799c1.129,0.895,2.213,1.972,3.184,3.125c-0.834-1.332-1.74-2.594-2.739-3.724l0.41-0.524
						l0.751-0.838c0.459,0.619,0.896,1.258,1.293,1.888l-0.532-1.057l-0.584-1.01c1.08-1.11,2.29-2.08,3.487-2.824l0.626,1.776
						l-0.192-0.95L631.424,166.134L631.424,166.134z M634.15,166.817l0.875-1.429c-3.301,3.909-4.989,9.302-5.852,13.719
						c-0.862,4.416-0.9,7.856-0.9,7.856l0.286-2.518l0.371-2.375l0.105-0.532l0.053-0.32l0.105-0.475l0.178-0.9l0.272-1.138
						l0.096-0.434l0.057-0.21c0.206-0.826,0.426-1.612,0.653-2.359l0.026-0.093l0.109-0.329l0.387-1.213l0.193-0.537l0.096-0.29
						l0.115-0.3l0.175-0.488l0.414-1.041l0.093-0.242l0.032-0.074l0.039-0.099l0.116-0.256l0.584-1.336l0.283-0.578l0.115-0.253
						l0.127-0.242C633.644,167.736,633.915,167.232,634.15,166.817L634.15,166.817z"/>
					<g>
						<path style="fill:#E3D85C;" d="M643.278,216.062l-0.022-0.608c-1.241,1.632-2.386,3.416-3.382,5.123l0.446,0.328
							c0.376,0.213,0.753,0.427,1.129,0.641l1.112,0.476l0.782-2.111L643.278,216.062L643.278,216.062z"/>
						<path style="fill:#E3D85C;" d="M643.233,214.828l-0.257-7.153l-0.545-0.672l-0.352-0.393l-1.273-1.454l-0.597-0.637
							l-0.31-0.346l-0.345-0.353l-0.543-0.579l-1.22-1.222l-0.278-0.285l-0.208-0.202l-0.322-0.296l-1.65-1.552l-0.761-0.662
							l-0.32-0.293l-0.331-0.274c-0.784-0.682-1.487-1.251-2.083-1.717l-2.159-1.582c5.344,2.948,9.772,7.187,13.234,11.389
							l-0.368-5.93l-0.029,0.082l0.025-0.147l-0.2-3.218c-2.055-0.963-4.2-1.717-6.231-2.243l-0.011,2.499l-0.219-1.292
							l-0.129-1.292c-2.744-0.69-5.257-0.947-7.051-0.659c0,0,0.494,2.652,1.453,6.3l1.698,0.242l1.679,0.423
							c-1.044-0.087-2.12-0.074-3.178,0.08l1.068,3.719l0.355,1.037c1.869-0.266,3.728-0.163,5.56,0.185l1.822,0.425
							c-0.568,0.007-1.136,0.013-1.704,0.02l-1.72,0.18c-1.147,0.176-2.286,0.462-3.383,0.869l0.565,1.649
							c0.288,0.718,0.576,1.436,0.864,2.155l0.793,1.746c0.49-0.324,0.981-0.626,1.483-0.905l1.555-0.762l-1.413,1.02l-1.391,1.135
							c1.123,2.289,2.397,4.299,3.834,5.661l1.504-1.7C641.18,216.705,642.217,215.691,643.233,214.828L643.233,214.828z"/>
					</g>
				</g>
			</g>
			<path style="fill:#B0AB1E;" d="M642.541,200.55l0.004,0.065l-0.029,0.082L642.541,200.55L642.541,200.55z"/>
			<g>
				<g>
					<g>
						<path style="fill:#363440;" d="M449.739,402.483l-2.897,18.709c3.41,4.471,8.532,5.48,14.974,3.817l4.932-10.603
							L449.739,402.483L449.739,402.483z"/>
						<path style="fill:#363440;" d="M497.065,402.483l-2.896,18.709c3.409,4.471,8.531,5.48,14.973,3.817l4.932-10.603
							L497.065,402.483L497.065,402.483z"/>
					</g>
					<g>
						<path style="fill:#F19E44;" d="M541.293,309.027l11.536,13.42l-6.115,5.817l-5.029-6.943l-23.127,76.598
							c-1.359,4.5-5.495,7.588-10.196,7.612l-54.771,0.276l6.771,7.618l-6.101,3.303l-11.893-13.69l0.018-0.025
							c-0.489-0.449-0.94-0.946-1.345-1.488c-2.032-2.722-2.652-6.247-1.67-9.5c6.547-21.684,18.984-62.875,24.101-79.822
							c1.359-4.5,5.494-7.588,10.196-7.612c13.582-0.068,41.532-0.209,58.687-0.295c3.397-0.018,6.601,1.579,8.634,4.301
							C541.094,308.738,541.195,308.882,541.293,309.027z"/>
						<path style="fill:#FFCE80;" d="M541.625,309.413l5.191,6.04l-65.732,0.191c-3.825,0.011-7.216,2.458-8.433,6.083
							c-4.119,12.272-11.454,34.125-11.454,34.125c-0.531,1.584-2.249,2.438-3.833,1.907c-1.584-0.532-2.438-2.25-1.907-3.834
							c0,0,7.335-21.852,11.454-34.124c2.042-6.086,7.736-10.193,14.155-10.212L541.625,309.413L541.625,309.413z"/>
					</g>
					<g>
						<path style="fill:#FDC458;" d="M476.41,325.753c1.155-3.828,4.673-6.454,8.672-6.474c13.629-0.069,44.676-0.225,62.035-0.313
							c2.89-0.014,5.615,1.343,7.343,3.659c1.729,2.315,2.256,5.314,1.421,8.08c-6.489,21.492-20.029,66.337-25.069,83.027
							c-1.155,3.828-4.673,6.454-8.672,6.474c-13.629,0.069-44.676,0.225-62.035,0.313c-2.889,0.015-5.614-1.343-7.343-3.659
							c-1.729-2.315-2.256-5.314-1.421-8.08C457.83,387.288,471.37,342.443,476.41,325.753L476.41,325.753z"/>
						<path style="fill:#F19E44;" d="M468.962,383.1c0.81-2.961,3.5-5.015,6.569-5.015c10.876,0,36.138,0,49.661,0
							c2.123,0,4.125,0.99,5.413,2.678c1.288,1.687,1.716,3.879,1.156,5.927c-1.469,5.377-3.31,12.112-4.544,16.629
							c-0.81,2.961-3.5,5.015-6.569,5.015c-10.876,0-36.138,0-49.661,0c-2.123,0-4.125-0.99-5.413-2.678
							c-1.288-1.687-1.716-3.879-1.156-5.927C465.887,394.352,467.728,387.616,468.962,383.1L468.962,383.1z"/>
					</g>
					<g>
						<path style="fill:#F19E44;" d="M484.038,328.288c0.482-1.555,1.919-2.614,3.547-2.614c9.573,0,41.658,0,54.172,0
							c1.182,0,2.294,0.563,2.993,1.516c0.7,0.953,0.903,2.182,0.549,3.31c-0.878,2.791-1.948,6.194-2.668,8.486
							c-0.486,1.545-1.917,2.597-3.537,2.599c-9.552,0.013-41.653,0.056-54.156,0.072c-1.18,0.002-2.291-0.558-2.992-1.508
							c-0.701-0.949-0.909-2.176-0.559-3.303C482.257,334.035,483.322,330.6,484.038,328.288L484.038,328.288z"/>
						<path style="fill:#C7E3F4;" d="M491.68,332.625l17.619-53.837c0.423-1.295,1.73-2.174,3.202-2.155l36.407,0.467
							c1.034,0.013,2.001,0.471,2.612,1.237c0.611,0.766,0.796,1.751,0.499,2.661l-17.377,53.172
							c-0.523,1.6-2.362,2.509-4.105,2.029c-1.742-0.481-2.732-2.17-2.209-3.77l16.122-49.331l-29.554-0.379l-16.904,51.65
							c-0.523,1.6-2.363,2.508-4.105,2.027C492.145,335.914,491.156,334.225,491.68,332.625L491.68,332.625z"/>
					</g>
				</g>
				<g>
					<g>
						<path style="fill:#FDA092;" d="M533.385,262.686c0,0-16.374,0.72-18.195,8.261c-1.16,4.809-1.116,5.768-1.116,5.768
							l11.037,0.149c0,0-5.091,13.903-1.967,14.57c3.124,0.668,10.551-10.734,10.551-10.734s7.375-0.798,9.483-4.261
							c2.395-3.936,2.43-11.652,2.43-11.652L533.385,262.686L533.385,262.686z"/>
						<path style="fill:#FDA092;" d="M547.136,184.523l-16.981,79.282l15.24,2.926l23.794-71.769L547.136,184.523z"/>
						<path style="fill:#EF7D78;" d="M544.448,197.071c5.784,4.11,13.366,5.521,22.53,4.56l2.211-6.669l-22.053-10.439
							L544.448,197.071L544.448,197.071z"/>
					</g>
					<path style="fill:#D4C548;" d="M574.495,158.78c-0.582-12.776-7.206-27.767-7.206-27.767
						c-14.835,7.173-19.549,21.709-26.005,53.469c7.915,6.613,17.631,12.072,29.793,15.961
						C571.077,200.443,575.613,183.315,574.495,158.78L574.495,158.78z"/>
				</g>
			</g>
		</g>
	</g>
	<g>
		<ellipse style="fill:#B4CFD6;" cx="369.4" cy="440.267" rx="77.442" ry="8.694"/>
		<g>
			<g>
				<path style="fill:#FCC458;" d="M408.576,191.936c-1.394-8.041-8.372-13.912-16.532-13.912c-10.732,0-25.462,0-36.393,0
					c-8.522,0-15.69,6.387-16.669,14.852c-1.555,13.449-3.853,33.321-5.533,47.85c-0.55,4.754,0.956,9.517,4.14,13.09
					c3.184,3.573,7.742,5.617,12.528,5.617c14.746,0,35.205,0,50.227,0c4.952,0,9.651-2.187,12.839-5.976
					c3.188-3.789,4.54-8.792,3.694-13.671C414.312,225.002,410.861,205.103,408.576,191.936z"/>
				<path style="fill:#F8A848;" d="M414.307,194.402c-1.475-7.951-8.411-13.718-16.498-13.718c-10.784,0-25.68,0-36.68,0
					c-8.47,0-15.612,6.313-16.652,14.719c-1.5,12.125-3.637,29.397-5.262,42.53c-0.591,4.773,0.895,9.569,4.08,13.173
					c3.185,3.603,7.763,5.667,12.572,5.667c14.656,0,34.888,0,49.836,0c4.986,0,9.714-2.218,12.902-6.052
					c3.188-3.834,4.505-8.887,3.595-13.79C419.719,223.56,416.509,206.264,414.307,194.402z"/>
				<path style="fill:#F8A848;" d="M338.232,225.007l-4.168-0.261c0,0-0.836,13.316-1.24,19.749
					c-0.056,0.902,0.248,1.789,0.845,2.467c0.598,0.678,1.44,1.09,2.342,1.147c0.455,0.028,0.768,0.048,0.768,0.048L338.232,225.007
					L338.232,225.007z"/>
			</g>
			<g>
				<g>
					<g>
						<path style="fill:#CB4143;" d="M303.452,300.863l-27.43,36.09c8.278,1.522,17.489-1.444,28.077-11.03l3.793-15.406
							C306.678,306.785,305.205,303.56,303.452,300.863z"/>
						<path style="fill:#F9E4E4;" d="M276.022,336.953l27.43-36.09c-1.41-2.23-3.014-4.101-4.8-5.616l-27.957,40.091
							C272.429,336.08,274.202,336.629,276.022,336.953z"/>
					</g>
					<path style="fill:#FDA092;" d="M379.745,291.494c0,0-11.991,55.326-21.347,61.834c-10.002,6.959-57.641-27.55-57.641-27.55
						c-1.407-4.086,2.852-15.9,5.891-17.089c0,0,31.756,12.376,32.214,9.913c0.868-4.662,2.815-38.735,2.815-38.735L379.745,291.494
						L379.745,291.494z"/>
					<path style="fill:#EF7D78;" d="M341.282,286.299l0.395-6.432l38.068,11.627c0,0-0.861,3.974-2.31,9.912
						C361.786,299.604,347.886,291.011,341.282,286.299L341.282,286.299z"/>
				</g>
				<g>
					<g>
						<path style="fill:#CB4143;" d="M381.128,432.73l45.281,2.115c-3.443-7.681-11.11-13.584-25.011-16.864l-14.839,5.616
							C384.175,426.714,382.354,429.756,381.128,432.73L381.128,432.73z"/>
						<path style="fill:#F9E4E4;" d="M426.409,434.845l-45.281-2.115c-1.037,2.426-1.668,4.808-1.902,7.138l48.875,0.279
							C427.729,438.299,427.175,436.527,426.409,434.845z"/>
					</g>
					<path style="fill:#FDA092;" d="M385.562,289.736c3.41,43.876,3.918,90.089,0.813,134.575c4.808,0.58,13.2,0.06,19.304-4.049
						c8.68-49.825,13.256-92.586,16.086-140.395L385.562,289.736L385.562,289.736z"/>
					<path style="fill:#EF7D78;" d="M421.115,289.36l0.65-9.493l-36.203,9.869l0.823,11.921
						C399.417,300.827,412.059,294.868,421.115,289.36L421.115,289.36z"/>
				</g>
				<g>
					<path style="fill:#7396DD;" d="M356.105,240.673c-9.571,9.681-14.031,23.05-15.882,42.016
						c11.202,7.49,24.377,12.164,40.296,13.245l2.69-9.15l0.918,8.89c13.1-1.326,28.648-5.203,40.716-12.143
						c-1.918-15.067-6.621-29.135-13.16-42.542L356.105,240.673L356.105,240.673z"/>
					<path style="fill:#6277C5;" d="M350.183,248.171c1.696-2.732,3.667-5.217,5.922-7.498l55.578,0.316l1.742,3.728
						c-2.525,1.06-5.529,2.412-9.761,3.284C390.579,250.697,369.268,252.675,350.183,248.171L350.183,248.171z"/>
					<path style="fill:#6277C5;" d="M392.835,294.44c-2.973,0.547-5.897,0.949-8.708,1.234l-0.918-8.89l0,0v-0.367l2.923-9.389
						l21.012-3.314L392.835,294.44z"/>
				</g>
			</g>
			<g>
				<g>
					<path style="fill:#B0AB1E;" d="M358.398,146.632c0,0,18.125,17.16,23.329,16.484c5.204-0.677,24.692-16.451,24.692-16.451
						s18.579,81.645,14.852,89.196c-3.467,7.024-13.043,9.358-14.852,9.75c-1.81,0.391-42.944,3.586-50.674-0.899
						c-6.807-3.95-11.165-6.454-11.091-14.12C344.728,222.925,358.398,146.632,358.398,146.632L358.398,146.632z"/>
					<path style="fill:#9FA317;" d="M348.192,205.777c0.738,9.014,4.707,19.918,12.35,25.991
						c12.033,9.562,41.607,11.422,61.195-1.128c0.093,2.546-0.042,4.362-0.466,5.221c-3.467,7.024-13.043,9.358-14.852,9.75
						c-1.81,0.391-42.944,3.586-50.674-0.899c-6.807-3.95-11.165-6.454-11.091-14.12
						C344.679,228.061,346.185,218.052,348.192,205.777L348.192,205.777z"/>
				</g>
				<g>
					<path style="fill:#FDA092;" d="M372.164,149.859c0,0,1.474,10.156-2.827,12.522c0,0,3.373,13.569,13.071,13.298
						c7.994-0.223,11.887-13.371,11.887-13.371s-4.54-0.175-3.655-11.847L372.164,149.859z"/>
					<path style="fill:#EF7D78;" d="M371.921,158.336c5.628,3.51,16.486,5.849,22.245,4.377c0.086-0.26,0.129-0.405,0.129-0.405
						s-4.54-0.175-3.655-11.847l-18.476-0.602C372.164,149.859,372.849,154.581,371.921,158.336L371.921,158.336z"/>
				</g>
				<g>
					<g>
						<path style="fill:#FDA092;" d="M403.664,149.859c25.613-17.638,46.938-42.25,66.068-70.436l9.853,10.82
							c-20.685,36.685-43.717,68.739-68.735,96.956L403.664,149.859L403.664,149.859z"/>
					</g>
					<path style="fill:#FDA092;" d="M469.871,81.39c0,0-4.689-18.316-2.404-19.85s6.359,10.357,6.359,10.357
						s11.087-16.557,13.986-14.871c2.899,1.685-3.879,13.385-3.879,13.385s11.725-8.239,13.928-6.636
						c2.202,1.603-9.235,12.16-9.235,12.16s11.546-3.214,12.091-1.346c0.545,1.868-10.291,7.855-10.291,7.855
						s11.403,0.357,10.952,2.293c-0.451,1.935-22.546,5.874-22.546,5.874l-7.95-8.147"/>
				</g>
				<g>
					<g>
						<path style="fill:#FDA092;" d="M362.011,154.228c-19.549-18.558-39.383-45.203-58.762-76.638l-10.877,9.79
							c15.71,36.523,36.177,69.308,59.044,101.977L362.011,154.228z"/>
					</g>
					<path style="fill:#FDA092;" d="M302.916,79.533c0,0,6.482-17.761,4.36-19.514c-2.121-1.752-7.354,9.677-7.354,9.677
						s-9.392-17.575-12.443-16.185c-3.052,1.39,2.533,13.703,2.533,13.703s-10.851-9.36-13.202-7.983
						c-2.35,1.376,7.985,13.016,7.985,13.016s-11.171-4.343-11.899-2.538c-0.727,1.804,9.462,8.836,9.462,8.836
						s-11.382-0.775-11.125,1.196s21.852,8.08,21.852,8.08l8.719-7.319"/>
				</g>
				<path style="fill:#FFD983;" d="M370.114,154.645l-4.796-1.736c-7.78,29.389-16.029,57.133-26.231,84.767
					c0.284,2.887,1.079,5.175,3.206,5.904C352.496,218.277,362.402,186.694,370.114,154.645L370.114,154.645z"/>
				<path style="fill:#FFD983;" d="M392.714,154.645l4.796-1.736c7.781,29.389,14.771,53.998,24.972,81.632
					c-0.58,2.671-2.034,4.376-3.254,4.784C409.024,214.021,400.426,186.694,392.714,154.645L392.714,154.645z"/>
				<g>
					<path style="fill:#363E77;" d="M372.079,216.331c-1.251-21.737-0.571-39.66,0.069-59.994c0.023-0.722-0.546-1.328-1.268-1.35
						c-0.723-0.023-1.328,0.545-1.351,1.268c-0.643,20.412-1.322,38.405-0.066,60.227c0.041,0.722,0.661,1.274,1.383,1.232
						C371.568,217.673,372.12,217.053,372.079,216.331L372.079,216.331z"/>
					<path style="fill:#363E77;" d="M398.365,214.735c-0.587-18.766-2.274-38.084-4.624-57.734
						c-0.086-0.718-0.739-1.231-1.457-1.146c-0.718,0.086-1.231,0.739-1.145,1.457c2.341,19.572,4.023,38.813,4.607,57.505
						c0.022,0.722,0.627,1.291,1.35,1.268C397.819,216.063,398.387,215.457,398.365,214.735L398.365,214.735z"/>
					<g>
						<g>
							<path style="fill:#C84A77;" d="M367.559,218.351c-0.014-1.264,0.475-2.481,1.359-3.385c0.883-0.904,2.09-1.419,3.354-1.433
								c6.033-0.067,16.365-0.181,22.398-0.248c1.263-0.014,2.481,0.474,3.385,1.358c0.903,0.884,1.419,2.09,1.433,3.354
								c0.043,3.911,0.104,9.421,0.147,13.332c0.014,1.264-0.474,2.481-1.358,3.385c-0.884,0.903-2.09,1.419-3.354,1.433
								c-6.033,0.067-16.365,0.181-22.398,0.248c-1.264,0.014-2.481-0.475-3.385-1.358c-0.903-0.884-1.419-2.091-1.433-3.354
								C367.664,227.772,367.603,222.262,367.559,218.351z"/>
							<path style="fill:#DA669A;" d="M369.799,218.302c-0.014-1.264,0.475-2.482,1.358-3.385c0.884-0.904,2.091-1.419,3.354-1.433
								c6.033-0.067,16.365-0.182,22.398-0.249c1.264-0.014,2.482,0.475,3.385,1.359c0.904,0.883,1.419,2.09,1.433,3.354
								c0.044,3.91,0.105,9.421,0.148,13.332c0.014,1.263-0.475,2.481-1.358,3.384c-0.884,0.904-2.09,1.419-3.354,1.433
								c-6.033,0.067-16.365,0.182-22.398,0.249c-1.264,0.014-2.482-0.475-3.385-1.359c-0.904-0.883-1.419-2.09-1.433-3.354
								C369.903,227.723,369.842,222.212,369.799,218.302L369.799,218.302z"/>
						</g>
						<g>
							<path style="fill:#C84A77;" d="M392.113,228.976c1.048-1.253,1.692-3.013,1.67-4.955c-0.021-1.942-0.704-3.688-1.78-4.917
								l-0.02-1.878l-4.389,0.048v0.035c-2.793,0.38-4.947,3.308-4.908,6.835c0.039,3.526,2.258,6.407,5.058,6.724l0.001,0.035
								l4.389-0.049L392.113,228.976L392.113,228.976z"/>
							<g>
								<path style="fill:#F599C8;" d="M391.589,217.23c-3.761,0.042-6.78,3.129-6.739,6.89c0.042,3.761,3.129,6.78,6.89,6.739
									c3.761-0.042,6.781-3.129,6.739-6.89S395.35,217.188,391.589,217.23z"/>
								<g>
									<path style="fill:#363E77;" d="M391.605,218.654c-2.975,0.033-5.364,2.475-5.331,5.45c0.033,2.975,2.475,5.363,5.45,5.33
										s5.364-2.475,5.331-5.449C397.022,221.01,394.58,218.621,391.605,218.654z"/>
									<path style="fill:#FFFFFF;" d="M393.744,220.464c-0.715,0.008-1.289,0.594-1.281,1.309
										c0.008,0.715,0.595,1.289,1.309,1.281c0.715-0.008,1.289-0.595,1.281-1.31C395.045,221.03,394.459,220.456,393.744,220.464
										L393.744,220.464z"/>
								</g>
							</g>
						</g>
						<g>
							<path style="fill:#C84A77;" d="M373.162,216.346c-0.003-0.229,0.181-0.417,0.41-0.419c1.229-0.014,4.847-0.054,6.076-0.067
								c0.229-0.003,0.417,0.181,0.419,0.41c0.006,0.573,0.018,1.602,0.024,2.176c0.003,0.229-0.181,0.416-0.41,0.419
								c-1.229,0.013-4.846,0.054-6.076,0.067c-0.229,0.003-0.417-0.181-0.419-0.41C373.18,217.949,373.168,216.919,373.162,216.346
								z"/>
							<g>
								<path style="fill:#363E77;" d="M373.735,216.779c-0.002-0.172,0.136-0.314,0.309-0.316c1.002-0.011,4.127-0.045,5.129-0.057
									c0.172-0.001,0.314,0.137,0.316,0.309c0.003,0.322,0.009,0.819,0.012,1.141c0.002,0.172-0.136,0.314-0.309,0.316
									c-1.001,0.011-4.127,0.045-5.128,0.056c-0.173,0.002-0.314-0.136-0.316-0.308
									C373.744,217.598,373.739,217.1,373.735,216.779z"/>
								<path style="fill:#FFFFFF;" d="M375.565,217.036c-0.001-0.073,0.027-0.143,0.078-0.195s0.12-0.082,0.193-0.083
									c0.64-0.007,2.226-0.024,2.866-0.032c0.073,0,0.143,0.028,0.195,0.079s0.082,0.12,0.083,0.193c0,0.006,0,0.012,0,0.018
									c0.001,0.073-0.027,0.144-0.078,0.196s-0.121,0.081-0.194,0.082c-0.64,0.007-2.225,0.025-2.865,0.032
									c-0.073,0.001-0.144-0.027-0.196-0.078c-0.052-0.051-0.081-0.121-0.082-0.194
									C375.565,217.048,375.565,217.042,375.565,217.036L375.565,217.036z"/>
							</g>
						</g>
					</g>
				</g>
			</g>
			<g>
				<g>
					<ellipse style="fill:#E6B489;" cx="383.209" cy="107.154" rx="26.897" ry="22.014"/>
					<path style="fill:#F3CDA1;" d="M364.831,91.087c4.809-3.687,11.274-5.947,18.378-5.947c11.924,0,22.045,6.364,25.568,15.166
						C393.603,85.207,374.396,88.393,364.831,91.087z"/>
				</g>
				<ellipse style="fill:#C68F6A;" cx="383.945" cy="121.143" rx="44.157" ry="24.59"/>
				<ellipse style="fill:#AE654F;" cx="383.199" cy="122.337" rx="31.256" ry="13.971"/>
				<path style="fill:#FDA092;" d="M382.408,98.234c13.252,0,24.011,12.866,24.011,28.712c0,15.847-9.82,28.915-24.011,28.712
					c-14.173-0.202-24.01-12.865-24.01-28.712C358.398,111.1,369.157,98.234,382.408,98.234z"/>
				<path style="fill:#8D4A54;" d="M370.114,107.213c-4.835,4.589-7.218,24.225-4.34,35.201c1.265,4.823-3.827,4.25-4.048,8.397
					c-0.428,7.999,1.901,13.021,1.901,13.021s-15.754-5.795-16.027-14.332c-0.17-5.311,3.543-7.672,4.763-12.05
					c1.221-4.379-1.224-8.295,0-12.704c1.24-4.464,3.74-8.512,7.443-12.981C361.521,109.695,370.114,107.213,370.114,107.213
					L370.114,107.213z"/>
				<path style="fill:#8D4A54;" d="M398.841,108.365c0.566,0.066,4.446,19.436,3.777,29.419c-0.305,4.55-6.494,8.424-4.287,12.422
					c2.514,4.552,2.296,9.348-0.146,14.779c0,0,9.912-0.156,15.854-10.601c1.787-3.142-2.752-5.803-2.902-8.831
					c-0.141-2.835,3.411-3.359,2.758-10.774c-0.669-7.603-5.844-23.435-5.844-23.435L398.841,108.365L398.841,108.365z"/>
				<path style="fill:#C68F6A;" d="M350.987,121.12c11.95-15.376,51.606-19.042,63.468,0.067c1.958-5.085-0.443-10.597-6.677-16.487
					l-15.74-5.529c-7.376-3.62-19.332-1.702-29.948,2.873C355.04,109.143,350.974,115.582,350.987,121.12z"/>
				<g>
					<ellipse style="fill:#30385B;" cx="373.336" cy="125.432" rx="1.172" ry="1.816"/>
					<ellipse style="fill:#30385B;" cx="393.096" cy="125.432" rx="1.172" ry="1.816"/>
					<path style="fill:#8D4A54;" d="M389.727,114.32l0.583-2.308c2.282-1.312,7.562-0.891,8.689,4.562
						C396.19,113.72,392.786,113.367,389.727,114.32z"/>
					<path style="fill:#8D4A54;" d="M377.972,114.32l-0.582-2.308c-2.283-1.312-7.563-0.891-8.689,4.562
						C371.51,113.72,374.913,113.367,377.972,114.32z"/>
					
						<path style="fill:none;stroke:#D04949;stroke-width:1.27;stroke-linecap:round;stroke-linejoin:round;stroke-miterlimit:1.5;" d="
						M386.674,120.526c-1.64,6.259,0.228,8.907,0.47,10.515c0.163,1.084-0.761,2.397-1.583,2.93"/>
					<path style="fill:#FFFFFF;" d="M376.351,136.308c5.05,0.958,8.463,1.027,13.682,0.97c0,0-0.273,9.953-7.82,9.071
						C375.569,145.573,376.351,136.308,376.351,136.308z"/>
				</g>
			</g>
		</g>
	</g>
	<g>
		<ellipse style="fill:#B4CFD6;" cx="167.436" cy="440.267" rx="83.749" ry="8.694"/>
		<g>
			<g>
				<path style="fill:#2B2738;" d="M220.899,410.672c0,0-16.526,14.613-2.802,31.112l33.088-33.098l-14.687-10.892L220.899,410.672z
					"/>
				<path style="fill:#F0EDF4;" d="M214.572,436.268c0.812,1.814,1.975,3.653,3.525,5.516l33.088-33.098l-4.296-3.186
					L214.572,436.268L214.572,436.268z"/>
			</g>
			<g>
				<path style="fill:#FDA092;" d="M125.684,312.823l-6.103,109.221l21.042,4.195l16.628-107.645L125.684,312.823L125.684,312.823z"
					/>
				<path style="fill:#EF7D78;" d="M124.905,326.762c7.023,2.484,17.419,5.419,30.029,6.827l2.317-14.995l-31.567-5.771
					L124.905,326.762z"/>
			</g>
			<g>
				<path style="fill:#FDA092;" d="M172.969,315.609c0,0,5.695,30.521,12.034,44.529c7.361,16.267,34.4,52.448,34.4,52.448
					c6.958-1.239,13.883-8.651,18.271-13.422c0,0-21.231-32.783-27.907-46.978c-5.654-12.022-7.668-39.112-7.668-39.112
					L172.969,315.609L172.969,315.609z"/>
				<path style="fill:#EF7D78;" d="M177.013,334.253c8.556-0.472,17.657-1.825,27.072-4.459c-1.413-9.012-1.986-16.72-1.986-16.72
					l-29.13,2.535C172.969,315.609,174.562,324.143,177.013,334.253L177.013,334.253z"/>
			</g>
			<g>
				<path style="fill:#2B2738;" d="M121.441,420.213c0,0-21.581-4.569-26.658,16.282l46.295,6.862v-18.285L121.441,420.213z"/>
				<path style="fill:#F0EDF4;" d="M97.114,430.378c-0.974,1.733-1.758,3.763-2.331,6.117l46.295,6.862v-5.348L97.114,430.378z"/>
			</g>
			<g>
				<g>
					<path style="fill:#593A58;" d="M133.443,134.551c-5.505-0.037-9.963-4.802-9.963-10.665c0-5.886,4.493-10.665,10.027-10.665
						h96.423v21.33h-96.423H133.443z"/>
					<ellipse style="fill:#472F48;" cx="230.784" cy="123.886" rx="10.028" ry="10.665"/>
				</g>
				<g>
					<path style="fill:#89A7E2;" d="M242.913,148.067c0-3.585-1.424-7.023-3.959-9.557c-2.535-2.535-5.972-3.959-9.557-3.959
						c-18.919,0-51.008,0-51.008,0v56.569h56.354c4.512,0,8.17-3.657,8.17-8.169C242.913,173.831,242.913,158.929,242.913,148.067
						L242.913,148.067z"/>
					<path style="fill:#7396DD;" d="M237.584,151.831c0-8.289-6.719-15.008-15.008-15.008h-60.603
						c-8.288,0-15.007,6.719-15.007,15.008v89.878c0,8.288,6.719,15.007,15.007,15.007h60.603c8.289,0,15.008-6.719,15.008-15.007
						V151.831L237.584,151.831z"/>
					<path style="fill:#6277C5;" d="M218.985,151.831c0-8.289-6.719-15.008-15.007-15.008h-60.604
						c-8.288,0-15.007,6.719-15.007,15.008v89.878c0,8.288,6.719,15.007,15.007,15.007h60.604c8.288,0,15.007-6.719,15.007-15.007
						V151.831L218.985,151.831z"/>
					<path style="fill:#6277C5;" d="M240.812,226.938h-18.774v22.123h13.16c3.1,0,5.614-2.513,5.614-5.614V226.938z"/>
				</g>
			</g>
			<g>
				<path style="fill:#E4B586;" d="M135.63,240.518l-9.17,8.217l-6.879,71.423c0,0,25.819,9.352,43.997,5.847l2.765-26.567
					l4.675,26.052c0,0,32.624-1.64,44.851-9.987l-9.741-75.939L135.63,240.518L135.63,240.518z"/>
				<path style="fill:#CF9168;" d="M208.739,259.92l-2.611-20.356l-70.498,0.954l-9.17,8.217l-0.776,8.055
					C148.264,266.293,167.565,265.984,208.739,259.92L208.739,259.92z"/>
				<path style="fill:#CF9168;" d="M163.923,322.69l2.347-22.549l-0.07-0.918l-1.746-11.886l-13.564-1.151L163.923,322.69z"/>
			</g>
			<g>
				<path style="fill:#E55950;" d="M141.717,147.422l-1.823-13.197c0,0-8.074,3.398-14.38,11.501
					c-4.877,6.268-13.626,23.05-13.626,23.05l20.967,7.221L141.717,147.422z"/>
				<g>
					<path style="fill:#E43B3F;" d="M158.444,126.544c0,0-24.908,7.998-27.183,14.616c-4.18,12.158-7.5,112.957-7.5,112.957
						c7.688,2.948,15.626,5.262,24.136,6.122l4.66-8.205l7.302,8.233c17.052-1.641,33.526-5.055,49.066-11.337
						c0,0-1.756-104.842-11.492-110.777C176.559,125.43,158.444,126.544,158.444,126.544L158.444,126.544z"/>
					<g>
						<ellipse style="fill:#FED6CE;" cx="153.078" cy="155.504" rx="1.934" ry="1.887"/>
						<ellipse style="fill:#FED6CE;" cx="150.411" cy="226.496" rx="1.934" ry="1.887"/>
						<ellipse style="fill:#FED6CE;" cx="151.144" cy="244.213" rx="1.934" ry="1.887"/>
					</g>
				</g>
				<g>
					<path style="fill:#EF7D78;" d="M219.483,173.213l13.244,29.847l-16.685,7.561l-15.837-24.242L219.483,173.213z"/>
					<path style="fill:#E55950;" d="M194.688,136.823c0,0,5.573,1.394,14.237,11.627c5.426,6.409,18.471,30.577,18.471,30.577
						l-27.216,14.366C200.18,193.393,186.987,164.164,194.688,136.823L194.688,136.823z"/>
				</g>
				<path style="fill:#59649A;" d="M199.482,137.894c-10.972,31.833-12.064,62.168,13.36,84.191l-1.857,7.451
					c-37.562-31.448-42.101-57.907-27.789-98.045C187.985,132.669,195.167,134.374,199.482,137.894z"/>
				<g>
					<path style="fill:#59649A;" d="M123.48,229.536c27.433,2.367,56.341,1.503,85.542,0l0.55,8.464
						c-30.319,1.107-59.898,1.709-86.092,0V229.536z"/>
					<path style="fill:#6277C5;" d="M160.392,232.999c0-0.918-0.365-1.799-1.014-2.448c-0.65-0.65-1.531-1.015-2.449-1.015
						c-3.557,0-9.06,0-12.617,0c-0.918,0-1.799,0.365-2.449,1.015c-0.649,0.649-1.014,1.53-1.014,2.448c0,1.373,0,2.947,0,4.319
						c0,0.918,0.365,1.799,1.014,2.449c0.65,0.649,1.531,1.014,2.449,1.014c3.557,0,9.06,0,12.617,0
						c0.918,0,1.799-0.365,2.449-1.014c0.649-0.65,1.014-1.531,1.014-2.449C160.392,235.946,160.392,234.372,160.392,232.999z"/>
				</g>
				<path style="fill:#59649A;" d="M144.552,132.19c-12.501,23.378-17.461,51.496-19.417,88.544l-0.895-6.823
					c-1.781-34.631-0.477-58.079,7.896-75.301C136.004,135.139,140.429,133.243,144.552,132.19L144.552,132.19z"/>
			</g>
			<g>
				<g>
					<g>
						<path style="fill:#EBEBEB;" d="M134.924,226.938c-16.846-18.1-36.686-15.882-36.686-15.882
							c-6.116-18.584-13.243-35.871-21.04-52.297c18.902-10.215,42.748,5.344,44.616,6.599l-0.004-0.022
							c1.622-1.781,29.367-11.986,59.258-6.165l9.556,58c0,0-44.586-3.014-55.572,9.618L134.924,226.938z"/>
						<g>
							<path style="fill:#B0A91B;" d="M163.996,159.606c-3.637,6.87-10.227,20.431-10.656,29.026
								c-0.323,6.473,12.868,10.027,11.012,16.023c-0.91,2.942-6.259,7.8-11.474,11.981c-2.883,0.531-5.65,1.211-8.157,2.099
								c0.513-4.114,5.237-10.175,2.984-11.168c-2.253-0.993-13.443,5.362-16.502,5.21c-2.129-0.106,0.104-5.266-1.848-6.124
								c-2.004-0.881-8.297-0.103-10.175,0.837c-1.469,0.737-0.229,3.079-1.091,4.809l-0.979-0.427l-0.933-0.318
								c-0.141-3.134,0.87-5.853,0.323-8.705c-0.755-3.941-2.221-10.413-4.855-14.938c-2.855-4.902-11.144-9.799-12.274-14.477
								c-1.13-4.677,3.38-9.161,5.492-13.586l3.157,1.039l2.175,0.884c-1.068,2.733-4.354,4.218-4.005,6.836
								c0.352,2.641,3.74,6.269,6.12,9.011c2.389,2.752,6.093,4.458,8.212,7.499c2.834,4.069,4.388,15.004,8.793,16.915
								c4.406,1.911,13.968-2.252,17.64-5.449c3.624-3.155,3.27-9.058,4.392-13.73c1.464-6.101,3.393-17.773,4.395-22.874
								l3.377-0.251L163.996,159.606L163.996,159.606z"/>
							<path style="fill:#B0A91B;" d="M181.806,172.335c-5.141,5.022-11.545,11.964-12.648,15.969
								c-1.801,6.544,8.706,12.723,7.891,18.774c-0.29,2.151-1.99,4.989-4.076,7.742l1.309-0.049l6.692,0.046
								c0,0-0.208-1.161-0.303-1.743c-0.582-3.57-3.664-14.75-3.192-19.681c0.368-3.848,5.367-5.216,6.025-9.909L181.806,172.335
								L181.806,172.335z"/>
							<path style="fill:#B0A91B;" d="M93.038,191.524c5.508,0.643,13.123-0.324,16.531,1.869c3.35,2.154,3.395,8.434,3.921,11.285
								c0.355,1.925-0.742,3.642-0.765,5.823c-3.26-0.864-6.823-1.295-10.637-1.024c0.205-4.52,0.205-9.413-0.616-10.906
								c-0.842-1.533-3.517-1-5.86-0.131l-0.379-1.108L93.038,191.524z"/>
							<path style="fill:#B0A91B;" d="M87.082,157.843c0.137,1.033-0.858,1.419-0.637,2.125c0.879,2.808,2.642,10.667,5.911,14.727
								c3.27,4.06,11.421,7.431,13.705,9.634c0.86,0.829,1.162,3.305,0,3.582c-2.406,0.575-9.626,0-14.439-0.137
								c-3.56-9.3-7.493-18.666-11.605-28.073C80.017,159.701,82.443,158.37,87.082,157.843L87.082,157.843z"/>
							<g>
								<path style="fill:#7999C3;" d="M163.996,159.606c5.29-0.014,10.732,0.422,16.101,1.51l1.709,11.219
									c-5.141,5.022-11.545,11.964-12.648,15.969c-1.801,6.544,8.706,12.723,7.891,18.774c-0.29,2.151-1.99,4.989-4.076,7.742
									l-7.29,0.273c-4.858,0.397-4.554,0.372-9.107,0.919l-3.698,0.624c5.215-4.181,10.564-9.039,11.474-11.981
									c1.856-5.996-11.335-9.55-11.012-16.023C153.769,180.037,160.359,166.476,163.996,159.606L163.996,159.606z"/>
								<path style="fill:#7999C3;" d="M87.082,157.843c4.183-0.504,10.166-0.36,17.781,2.005
									c-2.112,4.425-6.622,8.909-5.492,13.586c1.13,4.678,9.419,9.575,12.274,14.477c2.634,4.525,4.1,10.997,4.855,14.938
									c0.547,2.852-0.464,5.571-0.323,8.705l-2.203-0.751l-1.249-0.302c0.023-2.181,1.12-3.898,0.765-5.823
									c-0.526-2.851-0.571-9.131-3.921-11.285c-3.408-2.193-11.023-1.226-16.531-1.869l-1.416-3.75
									c4.813,0.137,12.033,0.712,14.439,0.137c1.162-0.277,0.86-2.753,0-3.582c-2.284-2.203-10.435-5.574-13.705-9.634
									c-3.269-4.06-5.032-11.919-5.911-14.727C86.224,159.262,87.219,158.876,87.082,157.843L87.082,157.843z"/>
								<path style="fill:#8F8411;" d="M183.504,183.484l4.82,31.647c0,0-2.887-0.221-7.35-0.314c0,0-0.208-1.161-0.303-1.743
									c-0.582-3.57-3.664-14.75-3.192-19.681C177.847,189.545,182.846,188.177,183.504,183.484L183.504,183.484z"/>
								<path style="fill:#8F8411;" d="M155.742,159.979c-1.002,5.101-2.931,16.773-4.395,22.874
									c-1.122,4.672-0.768,10.575-4.392,13.73c-3.672,3.197-13.234,7.36-17.64,5.449c-4.405-1.911-5.959-12.846-8.793-16.915
									c-2.119-3.041-5.823-4.747-8.212-7.499c-2.38-2.742-5.768-6.37-6.12-9.011c-0.349-2.618,2.937-4.103,4.005-6.836
									c3.589,1.42,7.461,3.344,11.615,5.858C121.81,167.629,136.926,161.504,155.742,159.979L155.742,159.979z"/>
								<path style="fill:#8F8411;" d="M118.089,212.299c0.862-1.73-0.378-4.072,1.091-4.809c1.878-0.94,8.171-1.718,10.175-0.837
									c1.952,0.858-0.281,6.018,1.848,6.124c3.059,0.152,14.249-6.203,16.502-5.21c2.253,0.993-2.471,7.054-2.984,11.168
									c-4.156,1.394-7.619,3.309-9.797,5.871C134.924,224.606,128.613,216.695,118.089,212.299L118.089,212.299z"/>
								<path style="fill:#8F8411;" d="M95.612,198.44c2.343-0.869,5.018-1.402,5.86,0.131c0.821,1.493,0.821,6.386,0.616,10.906
									l-2.63,0.205L95.612,198.44z"/>
							</g>
						</g>
					</g>
					<path style="fill-opacity:0.16;" d="M134.963,226.893l-0.039,0.045c-16.846-18.1-36.686-15.882-36.686-15.882
						c-6.116-18.584-13.243-35.871-21.04-52.297c18.902-10.215,42.748,5.344,44.616,6.599l-0.004-0.022
						c0.017-0.019,0.037-0.039,0.061-0.06L134.963,226.893z"/>
				</g>
				<g>
					<g>
						<path style="fill:#FDA092;" d="M203.286,183.754c0,0-17.76-20.74-22.107-20.884c-6.796-0.226-10.916,2.204-10.669,4.378
							c0.353,3.114,9.041,1.68,9.041,1.68l3.598,2.987c0,0-7.022-0.479-9.565,0.958c-2.121,1.2-7.086,6.809-6.348,9.363
							c0.619,2.147,2.84,1.913,2.84,1.913s-0.953,2.01,0,3.496c1.204,1.879,4.098,0.258,4.098,0.258s-1.442,1.451,0.438,2.743
							c1.384,0.952,4.342-0.817,5.74-1.004c1.796-0.239,3.414,0.98,3.414,0.98s4.483,7.123,14.819,5.285L203.286,183.754
							L203.286,183.754z"/>
						<g>
							
								<path style="fill:none;stroke:#E43B3F;stroke-width:1.27;stroke-linecap:round;stroke-linejoin:round;stroke-miterlimit:1.5;" d="
								M170.644,183.277c3.582-5.369,7.377-6.73,13.003-5.783"/>
							
								<path style="fill:none;stroke:#E43B3F;stroke-width:1.27;stroke-linecap:round;stroke-linejoin:round;stroke-miterlimit:1.5;" d="
								M174.488,187.064c3.582-5.369,7.097-4.896,11.217-3.787"/>
						</g>
					</g>
					<path style="fill:#FDA092;" d="M200.205,182.102c0,0,20.907,10.641,29.782,16.73c3.555,2.439,7.148,15.46,2.342,22.453
						c-3.227,4.694-11.836,3.947-19.179-0.853c-6.136-4.011-17.065-27.039-17.065-27.039L200.205,182.102L200.205,182.102z"/>
				</g>
				<path style="fill:#FDA092;" d="M81.09,175.132c-0.937,0.383-3.974,1.93-0.792,4.845c0.505,0.462,1.261,0.841,2.151,1.13
					c-1.031,0.815-2.312,2.48,0.7,4.483c0.65,0.433,1.588,0.72,2.656,0.874c-0.934,0.718-2.88,2.702,0.745,4.732
					c3.205,1.796,12.337,0.019,11.608-2.95c-0.283-1.155-4.205-1.664-7.478-1.888c2.502-0.44,4.53-1.453,4.314-2.9
					c-0.134-0.894-2.418-1.561-4.934-2.027c1.353-0.356,2.291-0.993,2.324-1.942c0.032-0.928-2.232-1.93-4.718-2.748
					c1.57-0.024,2.801-0.453,3.107-1.44c0.613-1.979-9.562-6.525-9.562-6.525s-5.043,0.551-2.331,4.601
					C79.312,174.021,80.107,174.621,81.09,175.132L81.09,175.132z"/>
			</g>
			<g>
				<g>
					<g>
						<path style="fill:#FDA092;" d="M172.567,111.384c0,0-1.449,14.382,4.12,18.676c-7.589,6.952-15.533,10.133-22.39,14.227
							c0,0-4.101-8.514-3.813-13.647c0,0,3.167-1.377,1.418-8.748L172.567,111.384L172.567,111.384z"/>
						<path style="fill:#EF7D78;" d="M150.47,131.117c0-0.162,0.005-0.321,0.014-0.477c0,0,3.167-1.377,1.418-8.748l20.665-10.508
							c0,0-0.531,5.276,0.287,10.392C168.249,126.182,158.786,133.766,150.47,131.117L150.47,131.117z"/>
					</g>
					<path style="fill:#E55950;" d="M154.219,144.374c7.556-4.928,14.666-10.311,21.09-16.394c3.536,0.709,6.979,1.628,9.864,3.81
						c-1.675,7.499-5.492,14.17-10.103,19.242C168.302,146.895,163.588,145.136,154.219,144.374z"/>
					<path style="fill:#E55950;" d="M151.994,128.716c-0.333,6.663,0.52,11.029,2.225,15.578
						c-5.949,0.137-12.751,1.234-18.608,5.752c1.303-7.62,2.762-11.917,7.124-18.006
						C145.241,130.178,148.252,129.25,151.994,128.716z"/>
				</g>
				<g>
					<g>
						<path style="fill:#E6B489;" d="M134.924,76.138c0,0,7.543-20.061,11.059-22.877c3.835-3.072,11.616-5.574,16.355-4.54
							c5.851,1.278,26.526,10.903,28.553,19.775c1.826,7.994-2.105,21.826-2.105,21.826L134.924,76.138z"/>
						<path style="fill:#584344;" d="M138.785,66.569c8.675-0.362,31.335,0.356,51.839,15.228c-0.764,4.748-1.838,8.525-1.838,8.525
							l-53.862-14.184C134.924,76.138,136.623,71.619,138.785,66.569z"/>
						<path style="fill:#F4CDA8;" d="M141.287,60.999c1.728-3.63,3.461-6.749,4.696-7.738c3.835-3.072,11.616-5.574,16.355-4.54
							c2.865,0.626,9.283,3.252,15.324,6.811C160.185,49.713,147.5,56.314,141.287,60.999z"/>
					</g>
					<path style="fill:#EF7D78;" d="M135.296,97.748c3.952,1.464,6.197,5.254,5.009,8.46c-1.187,3.205-5.359,4.619-9.312,3.155
						c-3.952-1.464-6.197-5.255-5.01-8.46C127.171,97.698,131.343,96.284,135.296,97.748z"/>
					<path style="fill:#C68F6A;" d="M160.154,75.056c26.108,6.358,46.003,16.862,44.4,23.443
						c-1.602,6.581-24.099,6.762-50.207,0.404s-46.003-16.862-44.4-23.443C111.55,68.879,134.047,68.698,160.154,75.056
						L160.154,75.056z"/>
					<path style="fill:#A26C47;" d="M158.675,88.389c19.05,4.898,27.377,9.567,30.172,11.347c1.485,0.946-15.141,0.604-31.227-3.777
						c-16.085-4.381-28.843-9.442-28.249-11.227C130.073,82.621,140.556,83.73,158.675,88.389z"/>
					<path style="fill:#FDA092;" d="M140.623,75.078l38.821,10.406c0,0,2.292,11.017,1.43,16.467
						c-2.374,15.004-17.916,24.851-31.055,24.07c-15.207-0.904-17.892-13.527-16.055-31.523
						C134.991,82.48,140.623,75.078,140.623,75.078z"/>
					<path style="fill:#2B2738;" d="M175.668,105.534c0,0-7.597-9.671-7.966-16.801l15.467,5.121l-0.244,7.96L175.668,105.534
						L175.668,105.534z"/>
					<path style="fill:#2B2738;" d="M137.588,82.792c0,0-3.327,6.825-4.33,17.779c0,0-2.227-8.491-0.026-17.923L137.588,82.792z"/>
					<path style="fill:#C68F6A;" d="M132.26,83.557c0,0,23.42,0.322,51.732,13.577l-0.823-11.562l-46.176-12.955L132.26,83.557z"/>
					<path style="fill:#FDA092;" d="M179.992,99.937c4.125-0.866,8.044,1.147,8.746,4.492c0.703,3.345-2.075,6.764-6.2,7.63
						c-4.125,0.867-8.044-1.146-8.746-4.491C173.089,104.223,175.867,100.804,179.992,99.937z"/>
					<path style="fill:#CFA581;" d="M113.461,81.856c-2.681-2.327-3.971-4.521-3.514-6.396c1.603-6.581,24.1-6.762,50.207-0.404
						c8.344,2.032,16.054,4.487,22.629,7.103C134.588,68.804,105.959,71.142,113.461,81.856z"/>
					<g>
						<ellipse style="fill:#30385B;" cx="140.869" cy="98.755" rx="1.172" ry="1.816"/>
						<ellipse style="fill:#30385B;" cx="158.335" cy="98.755" rx="1.172" ry="1.816"/>
						<path style="fill:#2B2738;" d="M155.562,91.762l0.313-3.017c5.482-0.343,8.377,1.751,9.627,5.396
							C162.922,92.575,159.716,91.668,155.562,91.762z"/>
						<path style="fill:#2B2738;" d="M144.152,92.014l-0.258-3.021c-4.734-1.368-7.696,0.917-8.652,5.037
							C137.408,91.869,140.618,91.455,144.152,92.014L144.152,92.014z"/>
						
							<path style="fill:none;stroke:#D04949;stroke-width:1.27;stroke-linecap:round;stroke-linejoin:round;stroke-miterlimit:1.5;" d="
							M145.411,100.489c-1.369,2.683-2.087,5.399,0.33,8.28"/>
						<path style="fill:#FFFFFF;" d="M145.741,112.014c4.982-0.577,9.889-1.686,14.732-3.245c0,0,1.002,8.331-5.289,9.854
							C147.911,120.384,145.741,112.014,145.741,112.014z"/>
					</g>
				</g>
			</g>
		</g>
	</g>
</g>
</svg>
