<?xml version="1.0" encoding="utf-8"?>
<!-- Generator: Adobe Illustrator 27.5.0, SVG Export Plug-In . SVG Version: 6.00 Build 0)  -->
<svg version="1.1" xmlns="http://www.w3.org/2000/svg" xmlns:xlink="http://www.w3.org/1999/xlink" x="0px" y="0px"
	 viewBox="0 0 750 500" style="enable-background:new 0 0 750 500;" xml:space="preserve">
<g id="BACKGROUND">
	<rect style="fill:#AFDEC4;" width="750" height="500"/>
</g>
<g id="OBJECTS">
	<g>
		<line style="fill:none;stroke:#5FB083;stroke-miterlimit:10;" x1="95.451" y1="438.632" x2="654.549" y2="438.632"/>
		<linearGradient id="SVGID_1_" gradientUnits="userSpaceOnUse" x1="252.1192" y1="404.3643" x2="252.1192" y2="167.9929">
			<stop  offset="0.1277" style="stop-color:#AFDEC4"/>
			<stop  offset="1" style="stop-color:#5FB083"/>
		</linearGradient>
		<path style="fill:url(#SVGID_1_);" d="M326.529,339.163c16.01-27.833,12.183-70.162-8.036-79.495
			c14.518-25.234,0.3-59.942-16.766-63.326c2.353-32.416-20.568-39.44-20.568-39.44c-1.665-16.028-17.335-48.323-29.04-48.323
			c-11.705,0-27.375,32.295-29.04,48.323c0,0-22.921,7.024-20.568,39.44c-17.066,3.384-31.283,38.092-16.766,63.326
			c-20.22,9.334-24.046,51.662-8.036,79.495c-19.836,16.747-7.509,52.293,22.359,52.293c18.481,0,52.051,0,52.051,0
			s33.57,0,52.051,0C334.038,391.456,346.365,355.91,326.529,339.163z"/>
		
			<linearGradient id="SVGID_00000133494142552703050870000005843342089125083062_" gradientUnits="userSpaceOnUse" x1="537.1031" y1="381.0535" x2="537.1031" y2="91.8598">
			<stop  offset="0.1277" style="stop-color:#AFDEC4"/>
			<stop  offset="1" style="stop-color:#5FB083"/>
		</linearGradient>
		<path style="fill:url(#SVGID_00000133494142552703050870000005843342089125083062_);" d="M611.513,356.837
			c16.01-27.833,12.183-70.162-8.036-79.495c14.518-25.234,0.3-59.942-16.766-63.326c2.353-32.416-20.568-39.44-20.568-39.44
			c-1.665-16.028-17.335-48.323-29.04-48.323s-27.375,32.295-29.04,48.323c0,0-22.921,7.024-20.568,39.44
			c-17.065,3.384-31.283,38.092-16.766,63.326c-20.22,9.334-24.046,51.662-8.036,79.495c-19.836,16.747-7.509,52.293,22.359,52.293
			c18.481,0,52.051,0,52.051,0s33.57,0,52.051,0C619.022,409.13,631.349,373.584,611.513,356.837z"/>
		
			<linearGradient id="SVGID_00000072264020981134628820000002598448439408066955_" gradientUnits="userSpaceOnUse" x1="476.2044" y1="474.0262" x2="476.2044" y2="212.0236">
			<stop  offset="0.3201" style="stop-color:#AFDEC4"/>
			<stop  offset="0.3634" style="stop-color:#A6D9BD"/>
			<stop  offset="0.5333" style="stop-color:#87C7A4"/>
			<stop  offset="0.699" style="stop-color:#71BA92"/>
			<stop  offset="0.8573" style="stop-color:#64B387"/>
			<stop  offset="1" style="stop-color:#5FB083"/>
		</linearGradient>
		<path style="fill:url(#SVGID_00000072264020981134628820000002598448439408066955_);" d="M561.957,331.191
			c18.45-32.076,14.041-80.857-9.261-91.613c16.731-29.08,0.345-69.079-19.321-72.979c2.712-37.358-23.703-45.452-23.703-45.452
			c-1.918-18.471-19.977-55.689-33.466-55.689c-13.489,0-31.548,37.218-33.466,55.689c0,0-26.415,8.094-23.703,45.452
			c-19.667,3.9-36.052,43.898-19.321,72.979c-23.302,10.756-27.711,59.537-9.261,91.613c-22.86,19.3-8.654,60.264,25.767,60.264
			c21.298,0,59.985,0,59.985,0s38.687,0,59.985,0C570.611,391.456,584.817,350.491,561.957,331.191z"/>
		<g>
			<g>
				
					<linearGradient id="SVGID_00000013156061593409737030000006273079500144282515_" gradientUnits="userSpaceOnUse" x1="368.3846" y1="310.8957" x2="368.3846" y2="208.5099">
					<stop  offset="0" style="stop-color:#AFDEC4"/>
					<stop  offset="0.075" style="stop-color:#AECCAB"/>
					<stop  offset="0.2396" style="stop-color:#ACA97B"/>
					<stop  offset="0.4034" style="stop-color:#AB8B53"/>
					<stop  offset="0.5634" style="stop-color:#AA7434"/>
					<stop  offset="0.7186" style="stop-color:#A9641E"/>
					<stop  offset="0.8666" style="stop-color:#A85A11"/>
					<stop  offset="1" style="stop-color:#A8570C"/>
				</linearGradient>
				
					<rect x="303.496" y="150.395" style="fill:url(#SVGID_00000013156061593409737030000006273079500144282515_);" width="129.777" height="160.255"/>
				<g style="opacity:0.48;">
					<rect x="303.227" y="169.52" style="opacity:0.46;" width="130.316" height="7.5"/>
					<rect x="303.227" y="199.351" style="opacity:0.46;" width="130.316" height="7.5"/>
					<rect x="303.227" y="229.182" style="opacity:0.46;" width="130.316" height="7.5"/>
					<rect x="303.227" y="259.013" style="opacity:0.46;" width="130.316" height="7.5"/>
				</g>
			</g>
			
				<linearGradient id="SVGID_00000006699435911318227100000001760519858649851011_" gradientUnits="userSpaceOnUse" x1="280.3038" y1="349.5207" x2="280.3038" y2="241.8724">
				<stop  offset="0" style="stop-color:#AFDEC4"/>
				<stop  offset="0.0641" style="stop-color:#B8D7B6"/>
				<stop  offset="0.2641" style="stop-color:#D1C38E"/>
				<stop  offset="0.4614" style="stop-color:#E5B36F"/>
				<stop  offset="0.6528" style="stop-color:#F4A859"/>
				<stop  offset="0.8354" style="stop-color:#FCA14C"/>
				<stop  offset="1" style="stop-color:#FF9F47"/>
			</linearGradient>
			
				<rect x="257.111" y="159.77" style="fill:url(#SVGID_00000006699435911318227100000001760519858649851011_);" width="46.385" height="191.967"/>
			<g>
				<path style="fill:#FFFFFF;" d="M351.63,226.542c6.494-0.16,16.029-0.915,24.098,1.477c10.123,3.001,44.318,55.656,44.318,55.656
					l-25.098,3.125l-16.166-28.32l6.027,42.768h-57.503l-3.52-37.584l-17.671,28.679h-29.38c0,0,35.319-49.699,40.883-56.449
					C323.182,229.145,326.932,227.152,351.63,226.542z"/>
				<path style="fill:#234CA6;" d="M379.386,262.759c0,0-11.98-7.006-18.916-16.861h-27.521l-9.162,17.767l3.52,37.584h57.503
					L379.386,262.759z"/>
				<polygon style="fill:#234CA6;" points="333.714,227.65 332.416,251.374 338.463,251.374 340.044,226.755 				"/>
				<polygon style="fill:#234CA6;" points="357.659,226.351 354.298,250.707 360.869,250.707 365.464,226.412 				"/>
				<polygon style="fill:#1C3D85;" points="338.731,245.898 338.463,251.374 341.625,245.898 				"/>
				<polygon style="fill:#1C3D85;" points="355.029,245.898 354.298,250.707 352.125,245.898 				"/>
				<polygon style="fill:#1C3D85;" points="338.463,251.374 332.416,251.374 332.688,246.404 328.526,254.473 				"/>
				<path style="fill:#1C3D85;" d="M354.298,250.707h6.571l0.643-3.398c0,0,3.065,4.32,6.003,6.485L354.298,250.707z"/>
				<g>
					<path style="fill:#12264F;" d="M354.827,218.405c0,0,1.309-6.038,2.176-11.152c0.867-5.115-0.081-11.096-3.335-11.79
						c-3.254-0.693-6.324,0-6.324,0s-4.558-1.82-7.852,0.347c-4.508-0.607-9.189,0.52-9.883,5.375
						c-0.694,4.855,5.061,6.998,7.645,4.149L354.827,218.405z"/>
					<path style="fill:#F27868;" d="M337.254,205.333l1.339,8.483c0,0-1.607,7.143,4.465,8.84l0.625,6.518
						c0.536,3.84,8.215,4.554,12.679-2.5l-2.322-12.501c0,0,2.768,0.268,3.482-2.143c0.714-2.411-1.518-4.822-3.661-2.411
						c-2.857-2.054-4.018-4.375-4.107-6.518c-1.786,1.518-5.357,0-5.357,0s-2.054,2.054-4.107,1.161
						C340.29,204.261,338.683,205.69,337.254,205.333z"/>
					<path style="fill:#D14A38;" d="M343.058,222.655c2.902,0.759,7.322-1.563,8.572-3.259c-0.402,3.572-8.199,7.146-8.199,7.146
						L343.058,222.655z"/>
				</g>
			</g>
			
				<linearGradient id="SVGID_00000183940905624930307070000004824794003620777359_" gradientUnits="userSpaceOnUse" x1="455.6273" y1="452.4581" x2="455.6273" y2="163.0081">
				<stop  offset="0" style="stop-color:#AFDEC4"/>
				<stop  offset="0.0641" style="stop-color:#B8D7B6"/>
				<stop  offset="0.2641" style="stop-color:#D1C38E"/>
				<stop  offset="0.4614" style="stop-color:#E5B36F"/>
				<stop  offset="0.6528" style="stop-color:#F4A859"/>
				<stop  offset="0.8354" style="stop-color:#FCA14C"/>
				<stop  offset="1" style="stop-color:#FF9F47"/>
			</linearGradient>
			
				<rect x="426.261" y="116.457" style="fill:url(#SVGID_00000183940905624930307070000004824794003620777359_);" width="58.733" height="321.415"/>
			<g>
				
					<linearGradient id="SVGID_00000115511643405520317110000006767516284668476305_" gradientUnits="userSpaceOnUse" x1="341.6862" y1="455.833" x2="341.6862" y2="339.8217">
					<stop  offset="0" style="stop-color:#AFDEC4"/>
					<stop  offset="0.0641" style="stop-color:#B8D7B6"/>
					<stop  offset="0.2641" style="stop-color:#D1C38E"/>
					<stop  offset="0.4614" style="stop-color:#E5B36F"/>
					<stop  offset="0.6528" style="stop-color:#F4A859"/>
					<stop  offset="0.8354" style="stop-color:#FCA14C"/>
					<stop  offset="1" style="stop-color:#FF9F47"/>
				</linearGradient>
				
					<rect x="257.111" y="306.769" style="fill:url(#SVGID_00000115511643405520317110000006767516284668476305_);" width="169.15" height="131.103"/>
				<g>
					<rect x="281.457" y="306.769" style="fill:#8F491A;" width="2.62" height="131.103"/>
					<rect x="310.917" y="306.769" style="fill:#8F491A;" width="2.62" height="131.103"/>
					<rect x="340.376" y="306.769" style="fill:#8F491A;" width="2.62" height="131.103"/>
					<rect x="369.835" y="306.769" style="fill:#8F491A;" width="2.62" height="131.103"/>
					<rect x="399.294" y="306.769" style="fill:#8F491A;" width="2.62" height="131.103"/>
				</g>
			</g>
			<rect x="252.119" y="300.394" style="fill:#8F491A;" width="174.142" height="8.93"/>
			<g>
				<g>
					<path style="fill:#F5A800;" d="M322.298,272.259c1.852,10.229-2.591,17.255-9.419,18.491
						c-6.827,1.236-13.452-3.785-15.304-14.014c-1.852-10.23,2.818-16.004,9.645-17.241
						C314.048,258.259,320.446,262.029,322.298,272.259z"/>
					<path style="fill:#425217;" d="M302.754,261.162l11.232-1.09c0,0,1.973-5.462,6.121-8.204c-4.243-0.15-6.32,2.584-6.32,2.584
						s1.342-4.816,4.13-6.393c-3.162-0.499-6.492,3.605-6.492,3.605s1.067-6.338,3.703-7.173c-2.496-0.763-5.684,3.578-5.684,3.578
						s-0.748-6.344-2.18-7.942c-1.076,0.766-1.167,8.548-1.167,8.548s-3.231-4.108-6.16-3.077c2.435,1.846,4.287,6.941,4.287,6.941
						s-4.513-3.613-6.934-3.175c2.432,1.989,5.202,6.632,5.202,6.632s-5.093-2.079-7.759-1.811
						C297.988,256.384,302.754,261.162,302.754,261.162z"/>
				</g>
				<g>
					<path style="fill:#F5A800;" d="M343.125,281.345c-2.257,10.148-9.077,14.901-15.849,13.395s-10.934-8.703-8.676-18.851
						c2.257-10.148,8.801-13.661,15.573-12.155S345.382,271.197,343.125,281.345z"/>
					<path style="fill:#647A27;" d="M329.409,263.54l10.776,3.349c0,0,3.936-4.27,8.823-5.19c-3.853-1.783-6.828-0.068-6.828-0.068
						s3.104-3.919,6.285-4.292c-2.722-1.686-7.382,0.807-7.382,0.807s3.441-5.429,6.194-5.177c-2.005-1.671-6.627,1.096-6.627,1.096
						s1.77-6.138,1.068-8.166c-1.289,0.289-4.389,7.428-4.389,7.428s-1.387-5.039-4.486-5.224c1.53,2.645,1.262,8.06,1.262,8.06
						s-2.76-5.08-5.162-5.614c1.471,2.776,2.225,8.13,2.225,8.13s-3.889-3.89-6.451-4.676
						C326.867,257.288,329.409,263.54,329.409,263.54z"/>
				</g>
				<g>
					<circle style="fill:#647A27;" cx="321.669" cy="282.299" r="17.345"/>
					<path style="fill:#425217;" d="M335.781,284.553c-0.15,0.936,0.12,1.947-0.144,2.823c-0.274,0.906-0.697,1.766-1.081,2.597
						c-0.397,0.859-1.014,1.585-1.516,2.352c-0.518,0.792-0.784,1.788-1.399,2.469c-0.633,0.702-1.559,1.115-2.278,1.684
						c-0.74,0.585-1.697,0.756-2.51,1.185c-0.831,0.439-1.42,1.444-2.307,1.703c-0.894,0.261-1.895,0.185-2.826,0.247
						c-0.917,0.061-1.891,0.211-2.826,0.062c-0.935-0.149-1.818-0.586-2.671-0.929c-0.866-0.349-1.607-0.934-2.375-1.46
						c-0.762-0.523-1.754-0.83-2.406-1.506c-0.638-0.661-0.777-1.753-1.298-2.54c-0.506-0.764-1.379-1.347-1.762-2.211
						c-0.372-0.838-0.855-1.707-1.1-2.621c-0.238-0.884-0.165-1.887-0.275-2.826c-0.107-0.91,0-1.856,0.023-2.803
						c0.022-0.915,0.245-1.818,0.395-2.755c0.15-0.936-0.162-1.979,0.102-2.855c0.274-0.906,1.039-1.636,1.423-2.467
						c0.397-0.859,0.584-1.834,1.086-2.601c0.518-0.792,1.068-1.597,1.683-2.277c0.633-0.701,1.505-1.175,2.224-1.744
						c0.74-0.585,1.613-0.936,2.426-1.365c0.83-0.439,1.677-0.743,2.564-1.002c0.894-0.261,1.742-0.849,2.674-0.911
						c0.917-0.061,1.868,0.195,2.803,0.344c0.935,0.149,1.694,0.761,2.547,1.104c0.866,0.349,1.646,0.714,2.414,1.241
						c0.762,0.523,1.668,0.853,2.321,1.529c0.638,0.661,1.359,1.305,1.88,2.091c0.506,0.764,1.017,1.589,1.4,2.453
						c0.372,0.838,0.403,1.831,0.649,2.744c0.238,0.884,0.757,1.751,0.867,2.691c0.107,0.91-0.22,1.873-0.242,2.819
						C336.222,282.733,335.931,283.617,335.781,284.553z"/>
					<path style="fill:#647A27;" d="M334.492,284.347c-0.141,0.882-0.741,1.667-0.97,2.499c-0.237,0.862-0.811,1.569-1.134,2.368
						c-0.336,0.83-0.264,1.82-0.682,2.571c-0.437,0.785-1.043,1.447-1.558,2.133c-0.54,0.72-0.917,1.58-1.529,2.178
						c-0.645,0.63-1.522,0.975-2.23,1.453c-0.746,0.503-1.576,0.753-2.373,1.069c-0.828,0.328-1.609,0.663-2.472,0.768
						c-0.866,0.105-1.771,0.423-2.65,0.283c-0.879-0.14-1.585-0.845-2.375-1.215c-0.787-0.369-1.416-0.889-2.101-1.458
						c-0.659-0.548-1.576-0.858-2.128-1.568c-0.524-0.675-0.643-1.628-1.059-2.428c-0.395-0.758-1.179-1.373-1.467-2.225
						c-0.275-0.812-0.504-1.689-0.675-2.57c-0.163-0.843,0.214-1.773,0.154-2.666c-0.058-0.859-0.558-1.728-0.515-2.621
						c0.042-0.862,0.222-1.743,0.363-2.626c0.141-0.882,0.511-1.702,0.74-2.533c0.237-0.862,0.147-1.836,0.47-2.634
						c0.336-0.831,1.023-1.497,1.44-2.248c0.437-0.785,1.221-1.293,1.735-1.979c0.54-0.72,0.582-1.845,1.194-2.442
						c0.645-0.63,1.511-1.013,2.219-1.491c0.746-0.503,1.462-1.102,2.259-1.418c0.828-0.328,1.762-0.384,2.625-0.489
						c0.865-0.105,1.736,0.068,2.615,0.208c0.879,0.141,1.866,0.023,2.656,0.393c0.787,0.369,1.226,1.33,1.911,1.9
						c0.66,0.548,1.615,0.844,2.167,1.554c0.524,0.675,1.167,1.375,1.583,2.174c0.395,0.758,0.514,1.707,0.803,2.559
						c0.275,0.812,0.355,1.708,0.525,2.59c0.163,0.843,0.134,1.722,0.194,2.616c0.058,0.859,0.606,1.746,0.563,2.639
						C334.75,282.552,334.633,283.465,334.492,284.347z"/>
					<path style="fill:#425217;" d="M330.661,283.735c-0.142,0.892-0.125,1.811-0.33,2.655c-0.214,0.882-0.935,1.597-1.211,2.416
						c-0.291,0.865-0.071,1.908-0.421,2.691c-0.376,0.841-0.836,1.644-1.269,2.378c-0.473,0.802-1.437,1.216-1.965,1.871
						c-0.593,0.735-0.762,1.836-1.405,2.359c-0.74,0.602-1.697,0.886-2.472,1.168c-0.865,0.314-1.827,0.545-2.695,0.406
						c-0.869-0.139-1.662-0.723-2.387-1.291c-0.65-0.51-1.352-1.124-1.867-1.927c-0.447-0.697-1.085-1.441-1.419-2.324
						c-0.297-0.786-0.391-1.734-0.591-2.643c-0.183-0.831,0.201-1.79,0.106-2.705c-0.089-0.854-0.198-1.712-0.205-2.624
						c-0.007-0.865-0.169-1.748-0.098-2.653c0.068-0.867-0.216-1.807-0.073-2.7c0.142-0.892,0.731-1.69,0.937-2.534
						c0.214-0.882,0.76-1.629,1.036-2.448c0.291-0.865,0.151-1.859,0.501-2.643c0.376-0.841,0.918-1.568,1.351-2.301
						c0.473-0.802,0.755-1.707,1.283-2.361c0.593-0.735,1.435-1.181,2.077-1.703c0.74-0.602,1.549-0.886,2.325-1.167
						c0.865-0.314,1.653-0.532,2.522-0.393c0.87,0.139,1.837,0.229,2.561,0.798c0.65,0.51,0.899,1.491,1.414,2.294
						c0.447,0.697,0.729,1.488,1.063,2.371c0.298,0.785,0.975,1.497,1.175,2.405c0.183,0.831-0.086,1.766,0.009,2.681
						c0.089,0.854,0.619,1.71,0.626,2.622c0.007,0.865-0.027,1.77-0.098,2.674C331.073,281.971,330.804,282.843,330.661,283.735z"/>
					<path style="fill:#647A27;" d="M328.255,283.351c-0.152,0.951-0.046,1.944-0.248,2.843c-0.213,0.946-0.438,1.887-0.699,2.764
						c-0.28,0.939-0.887,1.746-1.213,2.589c-0.358,0.928-1.028,1.65-1.431,2.442c-0.462,0.909-0.961,1.658-1.465,2.358
						c-0.623,0.867-1.124,1.587-1.778,2.081c-0.876,0.661-1.675,1.419-2.533,1.282c-0.858-0.137-1.908-0.741-2.535-1.642
						c-0.468-0.673-0.395-1.815-0.717-2.833c-0.26-0.823-0.691-1.692-0.847-2.7c-0.136-0.878-0.377-1.821-0.429-2.814
						c-0.047-0.903,0.148-1.862,0.175-2.84c0.025-0.915-0.115-1.88-0.023-2.845c0.088-0.918,0.697-1.793,0.849-2.745
						c0.152-0.951-0.243-1.991-0.041-2.89c0.213-0.946,0.497-1.87,0.758-2.747c0.28-0.939,1.114-1.653,1.44-2.497
						c0.358-0.928,0.148-2.063,0.551-2.855c0.462-0.909,1.177-1.629,1.681-2.33c0.623-0.867,1.223-1.69,1.878-2.184
						c0.876-0.661,1.925-0.804,2.783-0.667c0.858,0.137,1.743,0.647,2.37,1.548c0.468,0.673,1.121,1.509,1.443,2.527
						c0.26,0.823,0.308,1.836,0.465,2.843c0.136,0.878-0.297,1.871-0.245,2.864c0.047,0.903,0.12,1.827,0.094,2.805
						c-0.025,0.915,0.111,1.861,0.018,2.827C328.468,281.454,328.407,282.4,328.255,283.351z"/>
					<path style="fill:#425217;" d="M323.589,282.606c-0.158,0.986-0.78,1.877-0.944,2.816c-0.174,0.993-0.497,1.927-0.675,2.852
						c-0.194,1.006-0.233,1.995-0.426,2.9c-0.22,1.03-0.557,1.957-0.77,2.829c-0.265,1.086-0.448,2.049-0.689,2.839
						c-0.508,1.664-0.881,2.821-1.181,2.773c-0.301-0.048-0.799-1.275-0.763-3.016c0.017-0.824,0.599-1.79,0.685-2.903
						c0.069-0.893,0.136-1.869,0.247-2.914c0.098-0.92-0.225-1.947-0.095-2.963c0.119-0.935,0.866-1.823,1.01-2.821
						c0.136-0.944-0.013-1.956,0.144-2.943c0.157-0.986,0.032-2.002,0.196-2.941c0.174-0.993,0.333-1.965,0.51-2.89
						c0.194-1.005,0.697-1.907,0.89-2.812c0.22-1.03,0.748-1.913,0.961-2.784c0.265-1.086,0.558-2.008,0.799-2.797
						c0.507-1.664,0.58-2.487,0.881-2.439c0.301,0.048,0.745,0.867,0.709,2.607c-0.017,0.824,0.062,1.834-0.025,2.948
						c-0.069,0.893-0.711,1.823-0.823,2.869c-0.098,0.92,0.014,1.919-0.115,2.935c-0.119,0.935-0.107,1.928-0.251,2.927
						C323.728,280.62,323.746,281.619,323.589,282.606z"/>
				</g>
				<g>
					
						<ellipse transform="matrix(0.7071 -0.7071 0.7071 0.7071 -111.2744 289.751)" style="fill:#647A27;" cx="294.123" cy="279.196" rx="18.806" ry="18.806"/>
					<path style="fill:#425217;" d="M309.553,277.777c0.094,1.023,0.648,2.013,0.606,3.004c-0.044,1.026-0.258,2.042-0.439,3.018
						c-0.187,1.009-0.64,1.937-0.961,2.877c-0.332,0.971-0.344,2.089-0.807,2.969c-0.477,0.907-1.339,1.59-1.942,2.38
						c-0.62,0.813-1.58,1.249-2.318,1.918c-0.755,0.684-1.105,1.898-1.967,2.408c-0.869,0.514-1.941,0.703-2.903,1.017
						c-0.947,0.31-1.93,0.729-2.952,0.823c-1.022,0.094-2.067-0.127-3.055-0.26c-1.003-0.134-1.939-0.55-2.887-0.897
						c-0.941-0.345-2.065-0.401-2.932-0.936c-0.848-0.523-1.286-1.633-2.044-2.32c-0.737-0.667-1.81-1.045-2.444-1.849
						c-0.615-0.78-1.356-1.564-1.859-2.458c-0.487-0.865-0.679-1.938-1.047-2.895c-0.356-0.927-0.498-1.95-0.728-2.95
						c-0.223-0.967-0.23-1.976-0.324-3c-0.094-1.023-0.701-2.035-0.658-3.026c0.044-1.026,0.652-1.997,0.833-2.973
						c0.187-1.009,0.122-2.084,0.443-3.024c0.332-0.971,0.694-1.964,1.157-2.844c0.477-0.907,1.266-1.639,1.869-2.429
						c0.62-0.813,1.444-1.415,2.182-2.084c0.755-0.684,1.562-1.23,2.425-1.74c0.869-0.514,1.602-1.36,2.564-1.674
						c0.947-0.31,2.015-0.297,3.037-0.391c1.022-0.094,1.983,0.345,2.971,0.477c1.003,0.134,1.92,0.309,2.868,0.656
						c0.941,0.345,1.981,0.448,2.848,0.983c0.848,0.523,1.778,1.006,2.536,1.692c0.737,0.667,1.495,1.397,2.129,2.202
						c0.615,0.78,0.915,1.815,1.418,2.709c0.487,0.865,1.265,1.636,1.633,2.594c0.356,0.927,0.271,2.026,0.502,3.027
						C309.528,275.747,309.459,276.754,309.553,277.777z"/>
					<path style="fill:#647A27;" d="M308.143,277.907c0.089,0.964-0.331,1.95-0.348,2.885c-0.018,0.97-0.431,1.866-0.556,2.791
						c-0.13,0.962,0.211,1.983-0.026,2.884c-0.248,0.942-0.708,1.8-1.064,2.659c-0.374,0.901-0.54,1.906-1.022,2.698
						c-0.508,0.835-1.337,1.432-1.953,2.124c-0.648,0.728-1.453,1.214-2.206,1.76c-0.782,0.566-1.513,1.128-2.391,1.47
						c-0.881,0.343-1.747,0.92-2.708,1.008c-0.961,0.088-1.891-0.462-2.821-0.639c-0.926-0.176-1.726-0.554-2.599-0.968
						c-0.84-0.399-1.886-0.478-2.656-1.076c-0.732-0.568-1.112-1.538-1.764-2.266c-0.618-0.69-1.607-1.126-2.138-1.944
						c-0.507-0.779-0.983-1.639-1.398-2.519c-0.397-0.842-0.25-1.92-0.554-2.842c-0.292-0.887-1.049-1.666-1.244-2.616
						c-0.188-0.916-0.235-1.891-0.323-2.856c-0.089-0.964,0.08-1.925,0.097-2.86c0.018-0.97-0.338-1.968-0.213-2.893
						c0.13-0.962,0.673-1.847,0.91-2.748c0.248-0.942,0.936-1.685,1.292-2.545c0.374-0.901,0.116-2.094,0.599-2.886
						c0.508-0.835,1.315-1.469,1.932-2.161c0.648-0.728,1.24-1.55,1.993-2.095c0.782-0.566,1.748-0.876,2.626-1.218
						c0.881-0.343,1.842-0.394,2.803-0.483c0.962-0.088,1.967-0.477,2.896-0.3c0.926,0.176,1.645,1.069,2.517,1.483
						c0.84,0.399,1.923,0.453,2.693,1.051c0.732,0.568,1.594,1.131,2.246,1.86c0.618,0.69,0.998,1.656,1.53,2.473
						c0.506,0.779,0.831,1.699,1.246,2.58c0.398,0.842,0.603,1.773,0.906,2.696c0.292,0.887,1.105,1.671,1.299,2.622
						C307.932,275.952,308.055,276.942,308.143,277.907z"/>
					<path style="fill:#425217;" d="M303.955,278.292c0.09,0.975,0.355,1.936,0.366,2.878c0.011,0.984-0.554,1.928-0.624,2.863
						c-0.073,0.987,0.437,2.023,0.28,2.94c-0.169,0.985-0.437,1.951-0.695,2.838c-0.282,0.969-1.183,1.663-1.562,2.492
						c-0.426,0.931-0.308,2.133-0.843,2.855c-0.616,0.83-1.544,1.386-2.284,1.89c-0.824,0.562-1.773,1.062-2.723,1.15
						c-0.951,0.087-1.94-0.313-2.853-0.716c-0.819-0.361-1.722-0.818-2.479-1.523c-0.657-0.612-1.526-1.223-2.114-2.061
						c-0.523-0.745-0.876-1.717-1.33-2.618c-0.415-0.824-0.269-1.934-0.614-2.87c-0.322-0.873-0.668-1.745-0.92-2.702
						c-0.239-0.907-0.646-1.791-0.815-2.76c-0.161-0.928-0.711-1.841-0.801-2.817c-0.09-0.975,0.315-1.972,0.304-2.913
						c-0.011-0.984,0.362-1.915,0.431-2.85c0.073-0.987-0.34-1.993-0.183-2.911c0.169-0.985,0.544-1.893,0.802-2.78
						c0.282-0.969,0.335-1.996,0.714-2.825c0.426-0.931,1.19-1.625,1.725-2.347c0.616-0.83,1.39-1.346,2.13-1.85
						c0.824-0.562,1.594-1.003,2.544-1.09c0.951-0.087,1.991-0.252,2.904,0.151c0.819,0.361,1.344,1.325,2.101,2.03
						c0.657,0.612,1.165,1.368,1.753,2.206c0.523,0.745,1.426,1.311,1.88,2.211c0.415,0.824,0.383,1.878,0.728,2.814
						c0.322,0.873,1.108,1.63,1.361,2.587c0.239,0.907,0.447,1.866,0.615,2.836C303.914,276.328,303.865,277.316,303.955,278.292z"
						/>
					<path style="fill:#647A27;" d="M301.324,278.534c0.096,1.04,0.473,2.055,0.502,3.054c0.03,1.051,0.046,2.1,0.007,3.091
						c-0.042,1.061-0.463,2.072-0.579,3.045c-0.128,1.071-0.637,2.009-0.848,2.949c-0.242,1.079-0.565,1.999-0.906,2.871
						c-0.422,1.078-0.755,1.969-1.31,2.663c-0.743,0.929-1.379,1.94-2.317,2.027c-0.938,0.086-2.203-0.266-3.103-1.044
						c-0.672-0.581-0.901-1.801-1.513-2.784c-0.494-0.794-1.18-1.592-1.614-2.609c-0.379-0.886-0.885-1.812-1.206-2.841
						c-0.292-0.936-0.344-1.995-0.578-3.031c-0.219-0.967-0.626-1.943-0.787-2.983c-0.154-0.988,0.251-2.071,0.156-3.111
						c-0.096-1.039-0.789-2.026-0.818-3.025c-0.03-1.051,0.021-2.098,0.06-3.089c0.042-1.061,0.727-2.036,0.843-3.009
						c0.128-1.071-0.398-2.207-0.187-3.147c0.242-1.079,0.8-2.027,1.141-2.898c0.422-1.078,0.832-2.104,1.387-2.797
						c0.743-0.929,1.806-1.361,2.744-1.447c0.938-0.086,2.005,0.212,2.905,0.99c0.672,0.581,1.583,1.284,2.194,2.267
						c0.494,0.794,0.816,1.846,1.251,2.862c0.378,0.886,0.19,2.045,0.511,3.074c0.292,0.936,0.616,1.887,0.851,2.922
						c0.219,0.967,0.615,1.925,0.777,2.964C301.039,276.484,301.229,277.493,301.324,278.534z"/>
					<path style="fill:#425217;" d="M296.222,279.003c0.099,1.078-0.315,2.181-0.236,3.211c0.084,1.09-0.005,2.158,0.056,3.177
						c0.066,1.108,0.29,2.158,0.33,3.16c0.045,1.141-0.06,2.206-0.05,3.179c0.013,1.212,0.079,2.273,0.038,3.167
						c-0.087,1.884-0.168,3.2-0.497,3.23c-0.329,0.03-1.182-1.125-1.61-2.963c-0.203-0.871,0.148-2.041-0.06-3.233
						c-0.167-0.957-0.359-2-0.522-3.128c-0.144-0.993-0.758-1.985-0.895-3.087c-0.126-1.014,0.421-2.147,0.304-3.235
						c-0.11-1.028-0.539-2.051-0.638-3.13c-0.099-1.078-0.504-2.112-0.583-3.142c-0.084-1.09-0.178-2.154-0.239-3.172
						c-0.066-1.108,0.221-2.19,0.181-3.192c-0.045-1.141,0.273-2.21,0.263-3.183c-0.013-1.212,0.048-2.259,0.089-3.153
						c0.087-1.884-0.058-2.769,0.271-2.799c0.329-0.03,1.015,0.711,1.444,2.549c0.203,0.871,0.557,1.91,0.765,3.103
						c0.167,0.957-0.258,2.107-0.095,3.234c0.144,0.993,0.53,2.012,0.667,3.114c0.126,1.014,0.404,2.054,0.521,3.142
						C295.836,276.879,296.123,277.923,296.222,279.003z"/>
				</g>
			</g>
			<g>
				<path style="fill:#FF4F4F;" d="M395.093,185.926L395.093,185.926c6.113,0,11.068-4.955,11.068-11.068V159.77h-22.136v15.088
					C384.025,180.971,388.98,185.926,395.093,185.926z"/>
				<path style="fill:#D11D1D;" d="M372.957,185.926L372.957,185.926c6.113,0,11.068-4.955,11.068-11.068V159.77h-22.136v15.088
					C361.889,180.971,366.845,185.926,372.957,185.926z"/>
				<path style="fill:#FF4F4F;" d="M350.822,185.926L350.822,185.926c6.113,0,11.068-4.955,11.068-11.068V159.77h-22.136v15.088
					C339.754,180.971,344.709,185.926,350.822,185.926z"/>
				<path style="fill:#D11D1D;" d="M328.686,185.926L328.686,185.926c6.113,0,11.068-4.955,11.068-11.068V159.77h-22.136v15.088
					C317.618,180.971,322.573,185.926,328.686,185.926z"/>
				<path style="fill:#FF4F4F;" d="M306.55,185.926L306.55,185.926c6.113,0,11.068-4.955,11.068-11.068V159.77h-22.136v15.088
					C295.482,180.971,300.437,185.926,306.55,185.926z"/>
				<path style="fill:#D11D1D;" d="M284.414,185.926L284.414,185.926c6.113,0,11.068-4.955,11.068-11.068V159.77h-22.136v15.088
					C273.346,180.971,278.301,185.926,284.414,185.926z"/>
				<path style="fill:#FF4F4F;" d="M262.278,185.926L262.278,185.926c6.113,0,11.068-4.955,11.068-11.068V159.77H251.21v15.088
					C251.21,180.971,256.166,185.926,262.278,185.926z"/>
			</g>
			<g>
				<polygon style="fill:#D14141;" points="404.322,116.457 426.457,116.457 406.161,159.77 384.025,159.77 				"/>
				<polygon style="fill:#A31717;" points="382.186,116.457 404.322,116.457 384.025,159.77 361.889,159.77 				"/>
				<polygon style="fill:#D14141;" points="360.05,116.457 382.186,116.457 361.889,159.77 339.754,159.77 				"/>
				<polygon style="fill:#A31717;" points="337.914,116.457 360.05,116.457 339.754,159.77 317.618,159.77 				"/>
				<polygon style="fill:#D14141;" points="315.778,116.457 337.914,116.457 317.618,159.77 295.482,159.77 				"/>
				<polygon style="fill:#A31717;" points="293.643,116.457 315.778,116.457 295.482,159.77 273.346,159.77 				"/>
				<polygon style="fill:#D14141;" points="271.507,116.457 293.643,116.457 273.346,159.77 251.21,159.77 				"/>
			</g>
			<polygon style="fill:#A31717;" points="426.261,116.457 426.261,159.77 406.161,159.77 			"/>
			<g>
				<rect x="283.241" y="92.304" style="fill:#F5CC71;" width="110.967" height="46.558"/>
				<polygon style="fill:#F49F45;" points="394.208,92.304 404.322,116.726 394.208,138.862 				"/>
				<g>
					
						<text transform="matrix(1 0 0 1 319.2226 106.8816)" style="fill:#FF4F4F; font-family:'Montserrat-Bold'; font-size:9.9449px;">LOCAL</text>
					
						<text transform="matrix(1 0 0 1 297.2118 126.5779)" style="fill:#FF4F4F; font-family:'Montserrat-Black'; font-size:22.8133px; letter-spacing:4;">SHOP</text>
					<g>
						<path style="fill:#D11D1D;" d="M316.188,103.317c0,0.757-0.613,1.37-1.37,1.37c-0.757,0-1.37-0.613-1.37-1.37
							s0.614-1.37,1.37-1.37C315.574,101.947,316.188,102.561,316.188,103.317z"/>
						<path style="fill:#D11D1D;" d="M364.22,103.317c0,0.757-0.613,1.37-1.37,1.37c-0.757,0-1.37-0.613-1.37-1.37
							s0.613-1.37,1.37-1.37C363.607,101.947,364.22,102.561,364.22,103.317z"/>
					</g>
				</g>
			</g>
			<g>
				<path style="fill:#F5A800;" d="M388.069,265.087c0,0-3.702,5.893-8.13,7.562c-4.428,1.669-12.232,0.528-15.968-2.703
					s-1.197,2.691-1.197,2.691s-0.113,6.038,7.501,7.412c7.614,1.375,13.819-1.567,16.287-4.493
					c2.468-2.926,4.586-7.711,3.124-10.519l0.372-1.486l3.219-0.097l-0.045-1.474l-7-0.575l-0.06,1.28l2.379,0.616L388.069,265.087z
					"/>
				<path style="fill:#F5A800;" d="M396.556,269.549c0,0-5.026,4.813-9.728,5.353c-4.701,0.54-11.992-2.468-14.829-6.511
					c-2.837-4.043-1.817,2.319-1.817,2.319s-1.58,5.828,5.47,9.016c7.05,3.188,13.784,1.847,16.891-0.39
					c3.107-2.237,6.326-6.362,5.592-9.441l0.723-1.351l3.146,0.69l0.316-1.44l-6.649-2.263l-0.37,1.227l2.157,1.177L396.556,269.549
					z"/>
				<path style="fill:#F5A800;" d="M409.935,270.826c0,0-5.026,4.813-9.727,5.353c-4.701,0.54-11.992-2.468-14.829-6.511
					c-2.837-4.043-1.817,2.319-1.817,2.319s-1.58,5.829,5.47,9.017c7.05,3.188,13.784,1.847,16.891-0.39
					c3.107-2.237,6.326-6.362,5.592-9.441l0.723-1.351l3.146,0.69l0.316-1.44l-6.649-2.263l-0.37,1.227l2.157,1.177L409.935,270.826
					z"/>
				
					<ellipse transform="matrix(0.1686 -0.9857 0.9857 0.1686 63.032 643.475)" style="fill:#D11D1D;" cx="412.94" cy="284.375" rx="7.969" ry="7.969"/>
				
					<ellipse transform="matrix(0.229 -0.9734 0.9734 0.229 25.9247 601.4799)" style="fill:#D11D1D;" cx="392.65" cy="284.375" rx="7.969" ry="7.969"/>
				
					<ellipse transform="matrix(0.7071 -0.7071 0.7071 0.7071 -92.0217 346.5895)" style="fill:#D11D1D;" cx="372.36" cy="284.375" rx="7.969" ry="7.969"/>
				
					<ellipse transform="matrix(0.7071 -0.7071 0.7071 0.7071 -95.7853 342.3551)" style="fill:#9FBA3C;" cx="365.367" cy="286.801" rx="7.969" ry="7.969"/>
				
					<ellipse transform="matrix(0.2449 -0.9695 0.9695 0.2449 11.9945 589.0024)" style="fill:#9FBA3C;" cx="384.142" cy="286.801" rx="7.969" ry="7.969"/>
				
					<ellipse transform="matrix(0.1598 -0.9872 0.9872 0.1598 55.4214 638.7148)" style="fill:#9FBA3C;" cx="402.917" cy="286.801" rx="7.969" ry="7.969"/>
				<g>
					<rect x="354.15" y="286.754" style="fill:#FFFFFF;" width="70.031" height="13.641"/>
					<rect x="414.134" y="286.754" style="fill:#FFDBC2;" width="10.048" height="13.641"/>
					<path style="fill:#8F491A;" d="M391.419,293.574h-14.555c-0.68,0-1.23-0.551-1.23-1.23l0,0c0-0.68,0.551-1.23,1.23-1.23h14.555
						c0.679,0,1.23,0.551,1.23,1.23l0,0C392.65,293.023,392.099,293.574,391.419,293.574z"/>
				</g>
			</g>
			<g>
				<rect x="274.118" y="286.754" style="fill:#FFFFFF;" width="70.031" height="13.641"/>
				<rect x="334.102" y="286.754" style="fill:#FFDBC2;" width="10.048" height="13.641"/>
				<path style="fill:#8F491A;" d="M311.387,293.574h-14.555c-0.68,0-1.23-0.551-1.23-1.23l0,0c0-0.68,0.551-1.23,1.23-1.23h14.555
					c0.68,0,1.23,0.551,1.23,1.23l0,0C312.618,293.023,312.067,293.574,311.387,293.574z"/>
			</g>
		</g>
		<g style="opacity:0.21;">
			<circle style="fill:#181954;" cx="484.994" cy="169.52" r="34.688"/>
		</g>
		<g>
			<polygon style="fill:#647A27;" points="286.08,243.863 293.814,243.863 300.916,233.035 293.674,232.754 			"/>
			<path style="fill:#F27868;" d="M242.463,418.238c0,0,0.094,16.406,4.594,20.719c4.5,4.313,13.313,5.813,15.563,6.281
				c2.25,0.469,1.969,3.094-0.844,3.75c-2.812,0.656-9.75,0.188-14.062,0s-11.063,0.656-12.938-0.844
				c-1.875-1.5,1.5-6.563,1.406-10.688c-0.094-4.125-4.781-19.594-4.781-19.594L242.463,418.238z"/>
			<path style="fill:#1E335E;" d="M262.619,445.238c-2.163-0.451-10.382-1.862-15.013-5.803c-4.422,2.049-8.878,1.322-11.686,0.438
				c-0.736,3.5-2.664,7.056-1.145,8.272c1.875,1.5,8.625,0.656,12.938,0.844s11.25,0.656,14.062,0
				C264.588,448.332,264.869,445.707,262.619,445.238z"/>
			<path style="fill:#F27868;" d="M174.392,415.719c0,0-6.534,15.049-4.156,20.811c2.378,5.762,9.836,10.69,11.705,12.026
				c1.87,1.337,0.553,3.625-2.285,3.091c-2.838-0.534-8.997-3.762-12.867-5.674c-3.87-1.911-10.387-3.863-11.497-5.992
				s4.02-5.399,5.599-9.212c1.578-3.812,3.531-19.857,3.531-19.857L174.392,415.719z"/>
			<path style="fill:#1E335E;" d="M181.941,448.556c-1.798-1.285-8.748-5.893-11.395-11.367c-4.872,0.091-8.656-2.372-10.869-4.315
				c-2.086,2.906-5.285,5.381-4.385,7.107c1.11,2.129,7.627,4.08,11.497,5.992c3.87,1.911,10.029,5.139,12.867,5.674
				C182.494,452.181,183.81,449.893,181.941,448.556z"/>
			<path style="fill:#234CA6;" d="M223.15,263.269c0,0,18.281,98.156,21.656,156.937h-23.625c0,0-4.334-36.616-5.625-62.437
				c-0.563-11.25-13.239-49.874-13.52-68.014h-2.883c0,0-4.997,34.266-9.497,63.516c-4.5,29.25-14.037,66.936-14.037,66.936h-26.156
				c0,0,8.156-35.719,13.781-52.875c5.625-17.156,4.219-34.594,4.781-51.469c0.563-16.875,3.375-36.844,14.344-52.594H223.15z"/>
			<g>
				<rect x="128.37" y="341.787" style="fill:#FFFFFF;" width="63.281" height="49.219"/>
				<path style="fill:none;stroke:#FFFFFF;stroke-width:1.1709;stroke-miterlimit:10;" d="M184.713,344.318h-49.406l17.931-25.703
					c1.481-2.123,4.033-3.407,6.772-3.407l0,0c2.739,0,5.291,1.284,6.772,3.407L184.713,344.318z"/>
			</g>
			<path style="fill:#1C3D85;" d="M223.15,263.269h-40.781c-6.159,8.844-9.745,19.017-11.807,29.226
				c12.228-14.829,41.226-18.64,53.689-23.181C223.555,265.444,223.15,263.269,223.15,263.269z"/>
			
				<line style="fill:none;stroke:#12264F;stroke-width:0.5;stroke-miterlimit:10;" x1="203.276" y1="265.144" x2="199.154" y2="289.755"/>
			<path style="fill:none;stroke:#12264F;stroke-width:0.5;stroke-miterlimit:10;" d="M208.057,265.144
				c0,0-1.048,16.013-7.462,16.679"/>
			<path style="fill:none;stroke:#12264F;stroke-width:0.5;stroke-miterlimit:10;" d="M186.302,265.144
				c0,0-1.488,13.007-11.569,12.738"/>
			<path style="fill:#1E335E;" d="M173.51,208.426l50.016,0.094c0,0,0,0,1.594-5.531c1.594-5.531-1.875-8.625-1.688-12.563
				s4.781-6.656,2.156-11.531s-7.781-2.625-7.781-2.625s-7.31-3.381-11.718-0.518c-4.407,2.862-6.136,9.987-6.136,9.987
				s-10.927,0.938-15.052,6.375s-2.25,7.219-4.781,8.531C177.588,201.957,172.432,203.176,173.51,208.426z"/>
			<path style="fill:#F27868;" d="M178.854,236.973l-7.734,26.297l-7.313,47.391c0,0,1.828,5.484,0,7.594s-7.172,0.703-7.313,0
				s0.703-1.688,0.703-1.688s-0.703-2.953,0.984-5.203c0,0-4.359-33.609-3.797-45.141c0.563-11.531,3.656-29.25,3.656-29.25H178.854
				z"/>
			<path style="fill:#D14A38;" d="M178.854,236.973h-20.812c0,0-1.113,6.376-2.125,13.967c7.384-3.111,17.275-4.839,20.398-5.332
				L178.854,236.973z"/>
			<path style="fill:#F27868;" d="M239.275,231.021l9.844,20.717l34.219-6.047c0,0,2.531-4.5,3.656-5.203
				c1.125-0.703,4.359-2.391,4.641-1.688c0.281,0.703-1.828,0.703-2.391,2.109c-0.563,1.406-2.391,2.109-0.984,2.672l4.219,0.281
				c0,0-0.281,6.75-8.297,5.625c0,0-20.672,12.516-32.484,16.734c-11.813,4.219-15.891-1.828-18.422-6.609
				c-2.531-4.781-11.531-22.641-11.531-22.641L239.275,231.021z"/>
			<path style="fill:#D14A38;" d="M242.186,237.146l-2.91-6.125l-17.531,5.952c0,0,3.998,7.934,7.414,14.641
				C232.256,246.217,237.819,240.009,242.186,237.146z"/>
			<path style="fill:#45541B;" d="M208.104,203.223c9.977,0.376,13.359,0.281,18.141,2.813c4.781,2.531,20.812,26.437,20.812,26.437
				l-18.562,6.328c0,0,0.703,6.82-4.781,9.984l-0.422,12.656c0,0,5.063,4.781-0.844,4.781c-5.906,0-36.562,0-41.344,0
				c-4.781,0,0-5.354,0-5.354l-3.234-19.255h-29.391c0,0,16.488-26.353,25.031-33.187
				C185.463,198.863,197.554,202.825,208.104,203.223z"/>
			<path style="fill:none;stroke:#2C3611;stroke-width:0.5;stroke-miterlimit:10;" d="M208.666,213.066
				c2.391,9.422,3.159,18.141,2.212,24.75c-0.947,6.609-4.884,19.125-4.181,28.406"/>
			<path style="fill:#647A27;" d="M192.019,202.08c-0.122,2.494-0.129,7.717,1.601,11.315c2.344,4.875,5.813,5.531,8.531,4.031
				c2.719-1.5,3.469-3.563,6-3.281c2.531,0.281,3.937,4.313,9.281,4.406c4.813,0.084,2.326-11.081,0.277-14.877
				c-2.445-0.217-5.449-0.294-9.605-0.451C203.036,203.031,197.612,202.021,192.019,202.08z"/>
			<path style="fill:#2C3611;" d="M226.149,224.961l2.346,13.84l5.725-1.952l-7.13-12.229
				C226.804,224.132,226.054,224.404,226.149,224.961z"/>
			<path style="fill:#2C3611;" d="M184.66,227.867l-4.259,13.747h-2.531l3.234,19.255c0,0-4.781,5.354,0,5.354
				c1.794,0,7.228,0,13.631,0c-7.551-7.066-8.778-29.375-8.964-38.206C185.757,227.371,184.851,227.251,184.66,227.867z"/>
			<path style="fill:none;stroke:#D14A38;stroke-width:0.5;stroke-miterlimit:10;" d="M288.82,243.619
				c-1.544-0.225-1.779,0.9-1.591,1.463c-0.703,1.078-0.157,1.922-0.055,2.109c-0.836,0.609-0.079,1.148,1.646,0.984"/>
			<path style="fill:#F27868;" d="M218.771,184.731c0,0,0.288,3.148-0.213,5.189c1.085,1.467,0.829,6.827-4.211,7.975
				c0,0-0.662,4.091-0.957,5.359c-0.288,1.238,1.723,4.913-2.935,5.04c-4.658,0.128-8.288-3.937-8.798-5.596
				c0,0,2.258-2.027,3.566-5.186c1.382-3.339,2.134-6.896,2.134-6.896s-2.835,0.664-3.601-0.995
				c-0.766-1.659,1.361-4.977,4.339-1.957c0,0,1.234-1.148,3.275-2.254c2.042-1.106,3.927-2.552,4.225-4.083
				C217.679,182.605,218.396,183.58,218.771,184.731z"/>
			<path style="fill:#D14A38;" d="M214.347,197.896c-2.722,0.957-6.253-2.829-6.168-5.04c-0.298,4.509,2.036,7.741,5.697,8.081
				L214.347,197.896z"/>
		</g>
		<g>
			<circle style="fill:#F5CC71;" cx="488.541" cy="167.138" r="34.688"/>
			<circle style="fill:none;stroke:#F49F45;stroke-miterlimit:10;" cx="488.541" cy="167.138" r="26.139"/>
			<circle style="fill:none;stroke:#F49F45;stroke-miterlimit:10;" cx="488.541" cy="167.138" r="29.239"/>
			<g>
				<path style="fill:#F49F45;" d="M491.217,179.51v5.792h-4.179v-5.572c-3.556-0.293-6.158-1.686-7.955-3.446l2.969-3.226
					c1.686,1.576,3.665,2.456,6.085,2.456c2.383,0,3.849-1.136,3.849-3.005c0-1.797-0.88-2.566-4.435-3.666
					c-5.462-1.723-7.441-3.959-7.441-7.551c0-3.739,2.859-6.305,6.928-6.892v-5.425h4.179v5.425c2.529,0.403,4.472,1.393,6.085,2.97
					l-2.676,3.152c-1.649-1.393-3.336-2.053-5.315-2.053c-2.016,0-3.299,0.843-3.299,2.382c0,1.54,0.917,2.163,4.729,3.373
					c4.582,1.466,7.258,3.409,7.258,7.844C497.998,175.845,495.505,178.63,491.217,179.51z"/>
			</g>
		</g>
		<g>
			<path style="fill:#234CA6;" d="M584.259,243.442H503.08c-3.368,0-6.098-2.73-6.098-6.098v-46.951c0-3.368,2.73-6.098,6.098-6.098
				h81.178c3.368,0,6.098,2.73,6.098,6.098v46.951C590.357,240.712,587.627,243.442,584.259,243.442z"/>
			<rect x="496.982" y="205.192" style="fill:#12264F;" width="93.375" height="11.063"/>
			<g>
				<circle style="fill:#12264F;" cx="564.835" cy="230.025" r="7.523"/>
				<circle style="fill:#DEDFFF;" cx="574.872" cy="230.025" r="7.523"/>
				<path style="fill:#F5A800;" d="M567.349,230.025c0,2.224,0.971,4.216,2.505,5.594c1.534-1.377,2.505-3.37,2.505-5.594
					c0-2.224-0.971-4.216-2.505-5.594C568.319,225.808,567.349,227.801,567.349,230.025z"/>
			</g>
			<g>
				<rect x="503.732" y="222.501" style="fill:#F5A800;" width="20.109" height="1.93"/>
				<rect x="503.732" y="227.13" style="fill:#12264F;" width="25.277" height="10.418"/>
			</g>
			<rect x="564.835" y="190.84" style="fill:#DEDFFF;" width="17.561" height="7.086"/>
		</g>
		
			<linearGradient id="SVGID_00000003091333032572040190000015876979375403391399_" gradientUnits="userSpaceOnUse" x1="517.5483" y1="456.0205" x2="517.5483" y2="423.6638">
			<stop  offset="0.1277" style="stop-color:#AFDEC4"/>
			<stop  offset="1" style="stop-color:#5FB083"/>
		</linearGradient>
		
			<ellipse style="fill:url(#SVGID_00000003091333032572040190000015876979375403391399_);" cx="517.548" cy="437.873" rx="68.3" ry="9.72"/>
		
			<linearGradient id="SVGID_00000158743820284211835700000014284993423272179361_" gradientUnits="userSpaceOnUse" x1="186.302" y1="116.3457" x2="186.302" y2="83.7014">
			<stop  offset="0" style="stop-color:#AFDEC4"/>
			<stop  offset="0.2611" style="stop-color:#B2DFC6"/>
			<stop  offset="0.4724" style="stop-color:#BCE3CE"/>
			<stop  offset="0.6663" style="stop-color:#CDEADA"/>
			<stop  offset="0.8486" style="stop-color:#E5F4EC"/>
			<stop  offset="1" style="stop-color:#FFFFFF"/>
		</linearGradient>
		<path style="fill:url(#SVGID_00000158743820284211835700000014284993423272179361_);" d="M133.413,107.727h105.778l-16.538-10.053
			c0,0-7.165-18.75-28.14-13.875c-12.725-13.125-36.725-5.901-41.975,7.737C138.288,92.799,133.413,107.727,133.413,107.727z"/>
		
			<linearGradient id="SVGID_00000060717412053437070550000009937123661771968669_" gradientUnits="userSpaceOnUse" x1="-254.2507" y1="128.0116" x2="-254.2507" y2="95.3673" gradientTransform="matrix(-1 0 0 1 316.7672 0)">
			<stop  offset="0" style="stop-color:#AFDEC4"/>
			<stop  offset="0.2611" style="stop-color:#B2DFC6"/>
			<stop  offset="0.4724" style="stop-color:#BCE3CE"/>
			<stop  offset="0.6663" style="stop-color:#CDEADA"/>
			<stop  offset="0.8486" style="stop-color:#E5F4EC"/>
			<stop  offset="1" style="stop-color:#FFFFFF"/>
		</linearGradient>
		<path style="fill:url(#SVGID_00000060717412053437070550000009937123661771968669_);" d="M623.907,119.393H518.129l16.538-10.053
			c0,0,7.165-18.75,28.14-13.875c12.725-13.125,36.725-5.901,41.975,7.737C619.032,104.464,623.907,119.393,623.907,119.393z"/>
		
			<linearGradient id="SVGID_00000106854696342641650920000017824548196948455356_" gradientUnits="userSpaceOnUse" x1="517.5484" y1="434.7393" x2="517.5484" y2="294.6136">
			<stop  offset="0.002" style="stop-color:#FF4F4F"/>
			<stop  offset="1" style="stop-color:#D11D1D"/>
		</linearGradient>
		<path style="fill:url(#SVGID_00000106854696342641650920000017824548196948455356_);" d="M517.548,255.753
			c-58.034,0-64.595,60.052-39.867,106.984c16.073,30.505,29.627,58.99,35.987,72.615c1.537,3.294,6.223,3.294,7.761,0
			c6.36-13.625,19.914-42.11,35.987-72.615C582.143,315.805,575.583,255.753,517.548,255.753z M517.548,330.945
			c-11.566,0-20.943-9.376-20.943-20.943c0-11.566,9.376-20.943,20.943-20.943c11.566,0,20.943,9.376,20.943,20.943
			C538.491,321.568,529.115,330.945,517.548,330.945z"/>
		<g>
			<path style="fill:#FFFFFF;" d="M409.491,105.477l7.539-10.614c0.905-1.274,0.891-2.964,0.014-4.257
				c-3.382-4.987-5.153-11.154-4.566-17.756c1.14-12.842,11.442-23.294,24.269-24.598c17.194-1.749,31.553,12.513,29.969,29.677
				c-1.205,13.058-11.899,23.545-24.974,24.562c-5.149,0.4-10.004-0.66-14.243-2.776c-1.054-0.526-2.295-0.512-3.34,0.031
				l-13.536,7.031C409.797,107.205,408.952,106.235,409.491,105.477z"/>
			<path style="fill:#CF3724;" d="M439.775,70.108c8.524-11.054,19.984-4.851,16.325,6.202s-16.325,15.966-16.325,15.966
				s-12.666-4.913-16.325-15.966S431.252,59.054,439.775,70.108z"/>
		</g>
		<g>
			<g>
				<path style="fill:#FFFFFF;" d="M196.366,176.958l-7.539-10.614c-0.905-1.274-0.891-2.964-0.014-4.257
					c3.382-4.987,5.153-11.154,4.566-17.756c-1.141-12.842-11.443-23.294-24.269-24.598c-17.194-1.749-31.553,12.512-29.969,29.677
					c1.205,13.058,11.899,23.545,24.974,24.562c5.149,0.4,10.004-0.66,14.243-2.776c1.054-0.526,2.295-0.512,3.34,0.031
					l13.536,7.031C196.061,178.686,196.905,177.716,196.366,176.958z"/>
			</g>
			
				<text transform="matrix(1 0 0 1 155.9635 156.8459)" style="fill:#F49F45; font-family:'Montserrat-Bold'; font-size:31.8537px; letter-spacing:3;">$</text>
		</g>
		<g>
			<g>
				<path style="fill:#FFDBC2;" d="M430.452,453.966h-87.819c-4.925,0-8.918-3.993-8.918-8.918v-23.894H439.37v23.894
					C439.37,449.974,435.378,453.966,430.452,453.966z"/>
				<path style="fill:#FFFFFF;" d="M416.39,453.966h-73.757c-4.925,0-8.918-3.993-8.918-8.918v-23.894h91.593v23.894
					C425.308,449.974,421.315,453.966,416.39,453.966z"/>
				<path style="fill:#647A27;" d="M374.951,417.795c0,0-5.861,5.283-9.259,5.704c-3.398,0.422-6.351-2.25-9.866,0
					s-4.23,3.516-7.389,3.375s-3.861-2.088-7.518,0.011c-3.656,2.099-5.344,2.542-5.203,0c0.141-2.542,0.703-2.273,1.266-3.673
					s0.425-2.058,0.425-2.058h-2.534c0,0-1.448-0.345-2.271-3.359c-0.823-3.014-0.12-2.592-1.807-6.249s-1.448-5.625,1.807-5.203
					c3.255,0.422,2.022,2.531,6.225,3.938c4.202,1.406,28.764,1.688,28.764,1.688l8.484,1.453L374.951,417.795z"/>
				<path style="fill:#647A27;" d="M432.654,414.733c0,0,7.125-9.656,9.75-9c2.625,0.656,3.375-3.334,6.281-2.417
					c2.906,0.917,4.125,3.636,0.469,6.261c-3.656,2.625-3.094,1.5-3.75,5.156c-0.656,3.656-0.281,3.517-2.906,4.969
					c-2.625,1.452-4.031,1.875-4.031,1.875s1.125,2.344,0.375,3.469s-2.906,0.188-3.375,1.594c-0.469,1.406,2.719,2.813,0.844,4.313
					s-2.625,2.344-6.187,0c-3.563-2.344-2.314-3.117-7.406-3c-4.078,0.094-6.75,0.516-8.25-1.172
					c-1.5-1.687,1.875-2.672-3.563-3.891c-5.437-1.219-6.375-1.736-6.375-1.736h-6.995l5.308-6.046L432.654,414.733z"/>
				<path style="fill:#425217;" d="M432.21,414.739l0.444-0.005c0,0,1.357-1.839,3.104-3.857c1.037,2.306,2.389,5.589,2.615,7.513
					c0.158,1.342,0.565,2.248,0.984,2.852c-0.578,0.239-0.89,0.335-0.89,0.335c-1.031-1.781-3.281-1.875-4.622-2.813
					c-1.341-0.938,0.122-1.031,0-2.438C433.805,415.874,433.118,415.304,432.21,414.739z"/>
				<path style="fill:#425217;" d="M405.405,415.076c0,0-1.72,1.487-2.938,3.782c-1.219,2.296-0.026,3.75-3.622,3.844
					c-3.596,0.094-4.91-2.25-6.972,0.844c-2.062,3.094-4.687,3.75-7.968,3s-3-2.813-6.281-0.281c-3.281,2.531-4.142,4.781-7.5,3.375
					c-3.359-1.406-0.563-3.375-2.532-4.875c-1.968-1.5-3.281-3.094-1.687-4.875c1.594-1.781,4.031,0,4.688-2.625
					c0.656-2.625,1.781-3.844,1.781-3.844L405.405,415.076z"/>
			</g>
			<g>
				<path style="fill:#FFDBC2;" d="M430.452,416.227h-87.819c-4.925,0-8.918-3.993-8.918-8.918v-23.894H439.37v23.894
					C439.37,412.234,435.378,416.227,430.452,416.227z"/>
				<path style="fill:#FFFFFF;" d="M416.39,416.227h-73.757c-4.925,0-8.918-3.993-8.918-8.918v-23.894h91.593v23.894
					C425.308,412.234,421.315,416.227,416.39,416.227z"/>
				<path style="fill:#647A27;" d="M397.345,380.055c0,0,5.861,5.283,9.259,5.704c3.398,0.422,6.351-2.25,9.866,0
					c3.516,2.25,4.23,3.516,7.389,3.375c3.158-0.141,3.861-2.088,7.518,0.011c3.656,2.099,5.344,2.542,5.203,0
					c-0.141-2.542-0.703-2.273-1.266-3.673c-0.563-1.4-0.425-2.058-0.425-2.058h2.534c0,0,1.448-0.345,2.271-3.359
					c0.823-3.014,0.12-2.592,1.807-6.249c1.688-3.656,1.448-5.625-1.807-5.203c-3.255,0.422-2.023,2.531-6.225,3.938
					c-4.202,1.406-28.764,1.688-28.764,1.688l-8.485,1.453L397.345,380.055z"/>
				<path style="fill:#647A27;" d="M339.642,376.994c0,0-7.125-9.656-9.75-9c-2.625,0.656-3.375-3.334-6.281-2.417
					c-2.906,0.917-4.125,3.636-0.469,6.261c3.656,2.625,3.094,1.5,3.75,5.156c0.656,3.656,0.281,3.517,2.906,4.969
					s4.031,1.875,4.031,1.875s-1.125,2.344-0.375,3.469s2.906,0.188,3.375,1.594c0.469,1.406-2.719,2.813-0.844,4.313
					s2.625,2.344,6.188,0c3.563-2.344,2.314-3.117,7.406-3c4.078,0.094,6.75,0.516,8.25-1.172s-1.875-2.672,3.563-3.891
					c5.438-1.219,6.375-1.736,6.375-1.736h6.995l-5.308-6.046L339.642,376.994z"/>
				<path style="fill:#425217;" d="M340.086,377l-0.444-0.006c0,0-1.357-1.839-3.104-3.856c-1.037,2.306-2.388,5.589-2.615,7.513
					c-0.158,1.342-0.565,2.248-0.984,2.852c0.578,0.239,0.89,0.336,0.89,0.336c1.031-1.781,3.281-1.875,4.622-2.813
					c1.341-0.938-0.123-1.031,0-2.438C338.491,378.134,339.178,377.564,340.086,377z"/>
				<path style="fill:#425217;" d="M366.891,377.337c0,0,1.72,1.487,2.938,3.782c1.219,2.296,0.026,3.75,3.622,3.844
					c3.596,0.094,4.91-2.25,6.972,0.844c2.062,3.094,4.687,3.75,7.968,3c3.281-0.75,3-2.813,6.281-0.281
					c3.281,2.531,4.142,4.781,7.5,3.375c3.358-1.406,0.563-3.375,2.532-4.875c1.968-1.5,3.281-3.094,1.687-4.875
					c-1.594-1.781-4.031,0-4.688-2.625c-0.656-2.625-1.781-3.844-1.781-3.844L366.891,377.337z"/>
			</g>
			<g>
				<g>
					<path style="fill:#425217;" d="M353.088,312.087c4.48-0.448,5.484,5.625,9.281,8.016c3.797,2.391,6.328,2.672,8.297,6.609
						c1.969,3.938,0.831,3.375,2.672,7.172c1.841,3.797,3.017,1.406,4.462,6.187c1.445,4.781,0.414,3.844,1.492,7.172
						s2.48,5.344,2.48,5.344h-29.808c0,0,0.703-5.484,0.844-7.172s-2.672-4.922-2.391-7.664c0.281-2.742,2.953-4.43,2.391-6.82
						c-0.563-2.391-4.379-5.362-3.666-7.462c0.713-2.1,4.088-0.975,4.088-3.647S348.87,312.509,353.088,312.087z"/>
					
						<line style="fill:none;stroke:#647A27;stroke-width:0.5088;stroke-miterlimit:10;" x1="355.057" y1="314.618" x2="368.838" y2="353.15"/>
				</g>
				<g>
					<path style="fill:#647A27;" d="M344.128,354.677c0,0-0.635-5.906-6.822-6.75c-6.187-0.844-9.422-1.125-10.406-4.5
						c-0.984-3.375,0.563-4.641-2.531-6.188c-3.094-1.547-6.82-3.797-4.676-5.484c2.145-1.688-2.355-4.641-1.934-8.578
						c0.422-3.938,5.344-6.047,9.984-2.672c4.641,3.375,4.219,4.359,10.266,4.359c6.047,0,9.119,1.547,9.833,5.063
						c0.714,3.516,2.964,4.219,6.761,5.625c3.797,1.406,5.038,0.141,7.3,5.203c2.262,5.063,6.903,3.516,9.434,5.906
						c2.531,2.391,2.813,6.187,2.813,6.187L344.128,354.677z"/>
					
						<line style="fill:#425217;stroke:#362C23;stroke-width:0.5088;stroke-miterlimit:10;" x1="357.696" y1="352.99" x2="323.102" y2="323.318"/>
				</g>
				<g>
					<path style="fill:#647A27;" d="M373.745,352.587c0,0-0.916-7.57,2.964-9.445c3.88-1.875,2.567-4.875,3.317-7.125
						c0.75-2.25,0.656-1.758,3.094-3.691c2.438-1.934,1.031-4.277,2.625-6.34c1.594-2.062,3.281-3.375,4.969-2.813
						c1.688,0.563,2.063,2.344,1.688,4.406s-1.047,2.648,0.133,4.746s1.836,3.934,0.898,5.828c-0.938,1.894-2.813,2.738-1.406,5.269
						c1.406,2.531-0.188,9.566-0.188,9.566L373.745,352.587z"/>
					
						<line style="fill:#425217;stroke:#362C23;stroke-width:0.5088;stroke-miterlimit:10;" x1="389.683" y1="324.204" x2="382.371" y2="352.779"/>
				</g>
				<g>
					<g>
						<path style="fill:#647A27;" d="M404.008,341.632c0,0-0.844-9.164,0.492-9.305c1.336-0.141,0.703,7.102,0.703,7.102
							s4.641-7.313,6.188-6.328c1.547,0.984-4.739,6.973-4.739,6.973s5.653-1.676,6.638,0
							C414.274,341.749,404.008,341.632,404.008,341.632z"/>
						<path style="fill:#DE7A31;" d="M389.805,358.983c-1.27-0.808,7.644-18.238,12.516-19.336c4.992-1.125,4.717,3.81,3.797,5.906
							C404.852,348.437,394.446,361.937,389.805,358.983z"/>
					</g>
					<g>
						<path style="fill:#647A27;" d="M415.038,341.632c0,0-0.844-9.164,0.492-9.305c1.336-0.141,0.703,7.102,0.703,7.102
							s4.641-7.313,6.188-6.328c1.547,0.984-4.739,6.973-4.739,6.973s5.653-1.676,6.638,0
							C425.304,341.749,415.038,341.632,415.038,341.632z"/>
						<path style="fill:#DE7A31;" d="M400.835,358.983c-1.27-0.808,7.644-18.238,12.516-19.336c4.992-1.125,4.717,3.81,3.797,5.906
							C415.882,348.437,405.476,361.937,400.835,358.983z"/>
					</g>
					<g>
						<path style="fill:#647A27;" d="M426.069,341.632c0,0-0.844-9.164,0.492-9.305c1.336-0.141,0.703,7.102,0.703,7.102
							s4.641-7.313,6.187-6.328c1.547,0.984-4.739,6.973-4.739,6.973s5.653-1.676,6.638,0
							C436.334,341.749,426.069,341.632,426.069,341.632z"/>
						<path style="fill:#DE7A31;" d="M411.866,358.983c-1.27-0.808,7.644-18.238,12.516-19.336c4.992-1.125,4.717,3.81,3.797,5.906
							C426.912,348.437,416.506,361.937,411.866,358.983z"/>
					</g>
					<g>
						<path style="fill:#647A27;" d="M437.099,341.632c0,0-0.844-9.164,0.492-9.305c1.336-0.141,0.703,7.102,0.703,7.102
							s4.641-7.313,6.188-6.328c1.547,0.984-4.739,6.973-4.739,6.973s5.653-1.676,6.638,0
							C447.364,341.749,437.099,341.632,437.099,341.632z"/>
						<path style="fill:#DE7A31;" d="M422.896,358.983c-1.27-0.808,7.644-18.238,12.516-19.336c4.992-1.125,4.717,3.81,3.797,5.906
							C437.943,348.437,427.536,361.937,422.896,358.983z"/>
					</g>
				</g>
				<path style="fill:#FFDBC2;" d="M430.452,380.829h-87.819c-4.925,0-8.918-3.993-8.918-8.918v-23.894H439.37v23.894
					C439.37,376.836,435.378,380.829,430.452,380.829z"/>
				<path style="fill:#FFFFFF;" d="M416.39,380.829h-73.757c-4.925,0-8.918-3.993-8.918-8.918v-23.894h91.593v23.894
					C425.308,376.836,421.315,380.829,416.39,380.829z"/>
			</g>
		</g>
	</g>
</g>
</svg>
