<?xml version="1.0" encoding="utf-8"?>
<!-- Generator: Adobe Illustrator 27.5.0, SVG Export Plug-In . SVG Version: 6.00 Build 0)  -->
<svg version="1.1" xmlns="http://www.w3.org/2000/svg" xmlns:xlink="http://www.w3.org/1999/xlink" x="0px" y="0px"
	 viewBox="0 0 500 500" style="enable-background:new 0 0 500 500;" xml:space="preserve">
<g id="Floor">
	<path id="XMLID_15550_" style="fill:#FAFAFA;" d="M113.338,384.681c82.026,48.425,215.016,48.426,297.041,0.001
		c82.026-48.426,82.026-126.938,0-175.363c-82.026-48.425-215.016-48.425-297.042-0.001
		C31.312,257.743,31.312,336.256,113.338,384.681z"/>
</g>
<g id="Plants">
	<g id="XMLID_15611_">
		<g id="XMLID_15586_">
			<g>
				<path id="XMLID_15588_" style="fill:#27DEBF;" d="M434.025,205.766c0.452-5.616,4.781-15.197,11.195-22.021
					c6.414-6.824,16.674-10.111,23.004-7.361c5.895,2.561,4.599,10.461-3.18,15.14c-7.779,4.678-19.367,10.41-23.334,19.259
					l-7.685,10.632V205.766z"/>
				<path id="XMLID_2_" style="opacity:0.2;" d="M434.025,205.766c0.452-5.616,4.781-15.197,11.195-22.021
					c6.414-6.824,16.674-10.111,23.004-7.361c5.895,2.561,4.599,10.461-3.18,15.14c-7.779,4.678-19.367,10.41-23.334,19.259
					l-7.685,10.632V205.766z"/>
			</g>
			<path id="XMLID_15587_" style="fill:none;stroke:#FFFFFF;stroke-linecap:round;stroke-miterlimit:10;" d="M465.744,179.033
				c-7.35,1.4-28.896,15.263-31.719,36.207"/>
		</g>
		<g id="XMLID_15570_">
			<path id="XMLID_15585_" style="fill:#27DEBF;" d="M434.865,231.045c1.156-3.084,6.056-8.616,13.152-11.345
				c7.095-2.729,12.424-5.172,14.973-9.568c2.549-4.396-1.905-8.721-9.063-8.413c-7.158,0.309-19.052,7.801-19.902,19.696
				L434.865,231.045z"/>
			<path id="XMLID_15584_" style="fill:none;stroke:#FFFFFF;stroke-linecap:round;stroke-miterlimit:10;" d="M457.583,205.282
				c-6.179,0.609-21.199,9.719-23.228,19.917"/>
		</g>
	</g>
	<g id="XMLID_431_">
		<path id="XMLID_433_" style="fill:#27DEBF;" d="M65.503,259.556c0,0,0.053-10.563-5.213-23.061
			c-5.266-12.499-15.934-19.105-21.605-20.026c-5.671-0.921-11.554,5.973-4.322,14.203c7.233,8.23,21.087,19.174,25.064,35.791
			l6.51,11.335L65.503,259.556z"/>
		<path id="XMLID_1_" style="opacity:0.2;" d="M65.503,259.556c0,0,0.053-10.563-5.213-23.061
			c-5.266-12.499-15.934-19.105-21.605-20.026c-5.671-0.921-11.554,5.973-4.322,14.203c7.233,8.23,21.087,19.174,25.064,35.791
			l6.51,11.335L65.503,259.556z"/>
		<path id="XMLID_437_" style="fill:none;stroke:#FFFFFF;stroke-linecap:round;stroke-linejoin:round;stroke-miterlimit:10;" d="
			M38.684,220.304c11.653,6.939,25.168,25.15,27.059,49.348"/>
	</g>
	<g id="XMLID_425_">
		<path id="XMLID_426_" style="fill:#27DEBF;" d="M64.611,289.445c-1.572-6.412-5.825-12.738-14.233-19.06
			c-8.408-6.321-19.648-11.745-18.726-18.196c0.922-6.451,9.438-6.002,15.675-3.151c6.237,2.851,17.064,14.581,18.611,28.759
			L64.611,289.445z"/>
		<path id="XMLID_429_" style="fill:none;stroke:#FFFFFF;stroke-linecap:round;stroke-linejoin:round;stroke-miterlimit:10;" d="
			M37.554,250.174c8.096,2.015,25.48,17.893,27.948,31.436"/>
	</g>
</g>
<g id="Image_folder">
	<g id="XMLID_382_">
		<path id="XMLID_14290_" style="fill:#263238;" d="M66.914,293.434c-1.272-0.734-2.303-2.52-2.303-3.989V145.081
			c0-1.469,1.031-3.255,2.303-3.989l51.565-29.772c1.272-0.734,3.27-0.771,4.464-0.082c1.193,0.689,2.16,2.438,2.16,3.907v9.649
			c0,1.469,1.031,2.064,2.303,1.33l64.529-37.256c1.272-0.734,3.27-0.771,4.464-0.082c1.193,0.689,2.161,2.438,2.161,3.907v221.865
			l-47.529,27.441L66.914,293.434z"/>
		<path id="XMLID_387_" style="fill:#455A64;" d="M196.399,88.786c-1.193-0.689-3.192-0.652-4.464,0.082l-64.529,37.256
			c-1.272,0.734-2.303,0.139-2.303-1.33v-9.649c0-1.469-0.967-3.218-2.16-3.907c-1.193-0.689-3.192-0.652-4.464,0.082
			l-51.565,29.772c-0.636,0.367-1.212,0.998-1.629,1.72l29.57,17.074l103.704-59.874v-7.319
			C198.559,91.224,197.592,89.475,196.399,88.786z"/>
		<g id="XMLID_30_">
			<path id="XMLID_14291_" style="fill:#37474F;" d="M196.256,91.363l-68.851,39.751c-1.272,0.734-2.303,0.139-2.303-1.33
				l0.001-14.64c0-1.469-1.031-2.064-2.303-1.33l-51.567,29.771c-1.272,0.734-2.303,2.52-2.303,3.989l0.002,139.375
				c0,1.469,1.031,3.255,2.303,3.989l84.115,48.564l43.208-24.946V92.693C198.559,91.224,197.528,90.629,196.256,91.363z"/>
		</g>
		<path id="XMLID_388_" style="fill:#263238;" d="M69.607,289.22c0.417,0.722,0.993,1.353,1.629,1.72l84.115,48.564l43.208-24.946
			v-99.789L69.607,289.22z"/>
	</g>
	<g id="XMLID_14283_">
		<path id="XMLID_14289_" style="fill:#F5F5F5;" d="M80.053,320.974l-0.636-0.367c-1.018-0.587-1.843-2.016-1.843-3.191
			l-0.001-135.449c0-1.175,0.825-2.604,1.842-3.191l138.906-80.198c1.018-0.588,2.667-0.588,3.685,0l0.636,0.367
			c1.018,0.587,1.843,2.016,1.843,3.191v135.449c0,1.175-0.825,2.604-1.843,3.191L83.738,320.974
			C82.721,321.562,81.071,321.562,80.053,320.974z"/>
		<path id="XMLID_14288_" style="fill:#E0E0E0;" d="M86.215,184.83l-8.101-4.678c-0.333,0.577-0.54,1.228-0.54,1.816l0.001,135.449
			c0,1.175,0.825,2.604,1.843,3.191l0.636,0.367c1.018,0.588,2.667,0.588,3.685,0l2.476-1.43V184.83z"/>
		<path id="XMLID_14287_" style="fill:#EBEBEB;" d="M81.896,319.911l-0.001-135.449c0-1.175,0.825-2.604,1.842-3.191l138.906-80.198
			c1.018-0.587,1.843-0.111,1.843,1.064v135.449c0,1.175-0.825,2.604-1.843,3.191L83.738,320.974
			C82.721,321.562,81.896,321.086,81.896,319.911z"/>
		<path id="XMLID_14286_" style="fill:#FFFFFF;" d="M92.84,185.994l120.701-69.687c1.272-0.734,2.303-0.139,2.303,1.33v104.448
			c0,1.469-1.031,3.255-2.303,3.989L92.841,295.761c-1.272,0.734-2.303,0.139-2.303-1.33l-0.001-104.448
			C90.537,188.515,91.568,186.729,92.84,185.994z"/>
		<path id="XMLID_14285_" style="fill:#27DEBF;" d="M112.79,180.791c7.517-4.34,13.611-0.822,13.611,7.858
			c0,8.68-6.094,19.234-13.61,23.574c-7.517,4.34-13.61,0.822-13.611-7.858C99.18,195.686,105.273,185.131,112.79,180.791z"/>
		<path id="XMLID_14284_" style="fill:#27DEBF;" d="M125.402,212.271c1.988-3.699,7.003-4.387,9.915-1.361l15.713,16.33
			l29.796-73.11c1.943-4.769,8.52-5.219,11.095-0.759l23.925,41.438l-0.001,27.276c0,1.469-1.031,3.255-2.303,3.989L92.841,295.761
			c-1.272,0.734-2.303,0.139-2.303-1.33l-0.001-17.299L125.402,212.271z"/>
	</g>
	<g id="XMLID_14276_">
		<path id="XMLID_14282_" style="fill:#F5F5F5;" d="M105.979,335.951l-0.636-0.367c-1.018-0.587-1.842-2.016-1.842-3.191
			L103.5,196.944c0-1.175,0.825-2.604,1.842-3.191l138.906-80.198c1.018-0.587,2.667-0.587,3.685,0l0.636,0.367
			c1.018,0.588,1.842,2.016,1.842,3.191v135.449c0,1.175-0.825,2.604-1.842,3.191l-138.906,80.197
			C108.647,336.539,106.997,336.539,105.979,335.951z"/>
		<path id="XMLID_14281_" style="fill:#E0E0E0;" d="M112.141,199.807l-8.101-4.678c-0.333,0.577-0.54,1.228-0.54,1.816
			l0.001,135.449c0,1.175,0.825,2.604,1.842,3.191l0.636,0.367c1.018,0.588,2.667,0.588,3.685,0l2.477-1.43V199.807z"/>
		<path id="XMLID_14280_" style="fill:#EBEBEB;" d="M107.822,334.888l-0.001-135.449c0-1.175,0.825-2.604,1.842-3.191L248.57,116.05
			c1.018-0.588,1.842-0.111,1.842,1.064v135.449c0,1.175-0.825,2.604-1.842,3.191l-138.906,80.197
			C108.647,336.539,107.822,336.063,107.822,334.888z"/>
		<path id="XMLID_14279_" style="fill:#FFFFFF;" d="M118.766,200.971l120.701-69.687c1.272-0.734,2.303-0.139,2.303,1.33v104.448
			c0,1.469-1.031,3.255-2.303,3.989l-120.701,69.687c-1.272,0.734-2.303,0.139-2.303-1.33l-0.001-104.448
			C116.463,203.492,117.494,201.706,118.766,200.971z"/>
		<path id="XMLID_14278_" style="fill:#27DEBF;" d="M138.716,195.768c7.517-4.34,13.611-0.822,13.611,7.858
			c0,8.68-6.094,19.234-13.61,23.574c-7.517,4.34-13.61,0.822-13.611-7.858C125.106,210.663,131.199,200.108,138.716,195.768z"/>
		<path id="XMLID_14277_" style="fill:#27DEBF;" d="M151.328,227.248c1.988-3.699,7.003-4.387,9.915-1.361l15.713,16.33
			l29.796-73.11c1.943-4.769,8.52-5.219,11.095-0.759l23.925,41.438l-0.001,27.276c0,1.469-1.031,3.255-2.303,3.989l-120.701,69.687
			c-1.272,0.734-2.303,0.139-2.303-1.33l-0.001-17.299L151.328,227.248z"/>
	</g>
	<g id="XMLID_14267_">
		<path id="XMLID_14264_" style="fill:#F5F5F5;" d="M131.904,350.914l-0.636-0.367c-1.018-0.587-1.842-2.016-1.842-3.191
			l-0.001-135.449c0-1.175,0.825-2.604,1.842-3.191l138.906-80.198c1.018-0.588,2.667-0.588,3.685,0l0.636,0.367
			c1.018,0.588,1.842,2.016,1.842,3.191v135.449c0,1.175-0.825,2.604-1.842,3.191l-138.906,80.197
			C134.571,351.501,132.921,351.501,131.904,350.914z"/>
		<path id="XMLID_14268_" style="fill:#E0E0E0;" d="M138.065,214.769l-8.101-4.678c-0.333,0.577-0.54,1.228-0.54,1.816
			l0.001,135.449c0,1.175,0.825,2.604,1.843,3.191l0.636,0.367c1.018,0.588,2.667,0.588,3.685,0l2.477-1.43V214.769z"/>
		<path id="XMLID_14262_" style="fill:#EBEBEB;" d="M133.746,349.85l-0.001-135.449c0-1.175,0.825-2.604,1.842-3.191l138.906-80.198
			c1.018-0.587,1.842-0.111,1.842,1.064v135.449c0,1.175-0.825,2.604-1.842,3.191l-138.906,80.197
			C134.571,351.501,133.746,351.025,133.746,349.85z"/>
		<path id="XMLID_14265_" style="fill:#FFFFFF;" d="M144.69,215.934l120.701-69.687c1.272-0.734,2.303-0.139,2.303,1.33v104.448
			c0,1.469-1.031,3.255-2.303,3.989l-120.701,69.687c-1.272,0.734-2.303,0.139-2.303-1.33l-0.001-104.448
			C142.387,218.454,143.418,216.668,144.69,215.934z"/>
		<path id="XMLID_14266_" style="fill:#27DEBF;" d="M164.641,210.731c7.517-4.34,13.611-0.822,13.611,7.858
			c0,8.68-6.094,19.234-13.61,23.574c-7.517,4.34-13.611,0.822-13.611-7.858C151.03,225.625,157.124,215.071,164.641,210.731z"/>
		<path id="XMLID_14274_" style="fill:#27DEBF;" d="M177.252,242.211c1.988-3.699,7.003-4.387,9.915-1.361l15.713,16.33
			l29.796-73.11c1.943-4.769,8.52-5.219,11.095-0.759l23.925,41.438l-0.001,27.276c0,1.469-1.031,3.255-2.303,3.989l-120.701,69.687
			c-1.272,0.734-2.303,0.139-2.303-1.33l-0.001-17.299L177.252,242.211z"/>
	</g>
	<g>
		<g id="XMLID_14159_">
			<polygon id="XMLID_933_" style="fill:#263238;" points="155.351,339.504 168.314,332.02 168.314,346.988 			"/>
			<path id="XMLID_930_" style="fill:#263238;" d="M168.313,234.891v109.438c0,1.469-1.031,2.064-2.303,1.33l-10.659-6.154
				l-4.321,2.495l19.302,11.144c1.272,0.734,3.334,0.734,4.606,0l133.664-77.171c1.272-0.734,2.303-2.52,2.303-3.989V157.555
				c0-1.469-0.967-3.218-2.161-3.907s-3.192-0.652-4.464,0.082l-133.664,77.171C169.344,231.636,168.313,233.422,168.313,234.891z"
				/>
			<path id="XMLID_14263_" style="fill:#455A64;" d="M176.955,237.221l133.95-77.336v-2.33c0-1.469-0.968-3.218-2.161-3.907
				c-1.193-0.689-3.192-0.652-4.464,0.082l-133.664,77.171c-0.636,0.367-1.212,0.997-1.628,1.719L176.955,237.221z"/>
			<path id="XMLID_931_" style="fill:#37474F;" d="M308.602,156.226l-133.665,77.171c-1.272,0.734-2.303,2.52-2.303,3.989
				l0.001,114.427c0,1.469,1.031,2.064,2.303,1.33l133.664-77.171c1.272-0.734,2.303-2.52,2.303-3.989V157.555
				C310.905,156.087,309.874,155.491,308.602,156.226z"/>
		</g>
		<g id="XMLID_7755_">
			<path style="fill:#FAFAFA;" d="M208.221,304.269c-0.262,0-0.508-0.063-0.729-0.191c-0.509-0.294-0.79-0.871-0.79-1.626v-55.618
				c0-1.355,0.919-2.947,2.092-3.624l65.451-37.788c0.654-0.378,1.294-0.423,1.803-0.129c0.509,0.294,0.789,0.871,0.789,1.625
				l0.001,55.619c0,1.355-0.919,2.946-2.093,3.624l-65.45,37.787C208.926,304.161,208.56,304.269,208.221,304.269z M275.316,206.102
				c-0.162,0-0.359,0.063-0.571,0.185l-65.451,37.788l0,0c-0.863,0.498-1.592,1.761-1.592,2.758v55.618
				c0,0.377,0.105,0.653,0.29,0.76c0.184,0.105,0.477,0.06,0.803-0.129l65.45-37.788c0.863-0.498,1.593-1.761,1.593-2.758
				l-0.001-55.619c0-0.376-0.105-0.653-0.289-0.76C275.483,206.121,275.405,206.102,275.316,206.102z M209.044,243.642h0.01H209.044
				z"/>
			<path style="fill:#FAFAFA;" d="M218.769,256.37c-0.589,0-1.138-0.141-1.626-0.422c-1.16-0.67-1.799-2.039-1.799-3.856
				c0-3.526,2.484-7.829,5.538-9.592c1.573-0.909,3.079-1.039,4.239-0.371c1.16,0.67,1.799,2.04,1.799,3.857
				c0,3.526-2.484,7.829-5.538,9.591C220.47,256.104,219.581,256.37,218.769,256.37z M223.491,242.709
				c-0.635,0-1.354,0.221-2.109,0.657c-2.778,1.604-5.038,5.518-5.038,8.726c0,1.445,0.462,2.507,1.299,2.99
				c0.836,0.482,1.988,0.351,3.239-0.37c2.778-1.604,5.038-5.518,5.038-8.726c0-1.445-0.461-2.507-1.299-2.991
				C224.289,242.804,223.908,242.709,223.491,242.709z"/>
			<path style="fill:#FAFAFA;" d="M207.201,300.089c-0.076,0-0.154-0.018-0.227-0.055c-0.246-0.125-0.344-0.426-0.218-0.672
				l19.386-38.053c0.599-1.177,1.689-1.977,2.991-2.196c1.3-0.217,2.593,0.182,3.544,1.096l19.161,18.438
				c0.199,0.191,0.205,0.508,0.014,0.707c-0.191,0.199-0.508,0.204-0.707,0.014l-19.161-18.439c-0.721-0.693-1.701-0.994-2.685-0.83
				c-0.986,0.166-1.812,0.772-2.266,1.663l-19.386,38.053C207.559,299.989,207.383,300.089,207.201,300.089z"/>
			<path style="fill:#FAFAFA;" d="M241.769,270.153c-0.066,0-0.133-0.013-0.198-0.041c-0.253-0.11-0.37-0.404-0.26-0.657
				l15.014-34.675c0.558-1.287,1.719-2.173,3.108-2.371c1.391-0.196,2.753,0.33,3.646,1.411l13.643,16.491
				c0.176,0.213,0.146,0.528-0.067,0.704c-0.212,0.173-0.528,0.146-0.703-0.067l-13.643-16.491c-0.67-0.811-1.69-1.207-2.734-1.059
				c-1.042,0.148-1.913,0.813-2.331,1.779l-15.014,34.674C242.147,270.041,241.963,270.153,241.769,270.153z"/>
		</g>
		<g id="XMLID_422_">
			<defs>
				<polygon id="XMLID_423_" points="304.28,153.731 297,158 301,159 299.664,181.343 280.658,192.316 280.658,147.412 
					306.583,132.444 306.583,152.401 				"/>
			</defs>
			<clipPath id="XMLID_00000165219811141164656500000001573846968420424120_">
				<use xlink:href="#XMLID_423_"  style="overflow:visible;"/>
			</clipPath>
			<path style="clip-path:url(#XMLID_00000165219811141164656500000001573846968420424120_);fill:#27DEBF;" d="M290.855,181.596
				c-3.081,0-5.151-1.848-5.151-4.597l0.27-17.341c0-4.729,0-11.911,5.276-14.956c2.457-1.42,5.175-1.48,7.457-0.161
				c2.221,1.282,3.6,3.683,3.6,6.267c0,1.392-0.042,3.095-0.123,5.063c-0.035,0.827-0.702,1.471-1.561,1.436
				c-0.827-0.034-1.471-0.733-1.437-1.561c0.079-1.899,0.121-3.606,0.121-4.938c0-1.516-0.805-2.921-2.1-3.669
				c-0.78-0.45-2.396-1.029-4.457,0.161c-3.487,2.014-3.776,7.006-3.776,12.382l-0.27,17.341c0,1.296,1.17,1.574,2.151,1.574
				c2.576,0,6.145-2.165,6.145-6.23l-0.106-6.843c-0.013-0.829,0.648-1.51,1.477-1.523c0.816,0.004,1.511,0.648,1.523,1.477
				l0.106,6.866C300,178.067,295.253,181.596,290.855,181.596z"/>
		</g>
	</g>
</g>
<g id="Photo">
	<g id="XMLID_14358_">
		<path id="XMLID_14307_" style="fill:#455A64;" d="M313.384,288.179l-104.339,60.24c-1.018,0.587-1.842,2.016-1.842,3.191v0.734
			c0,1.175,0.825,2.604,1.842,3.191l87.055,50.262c1.018,0.587,2.667,0.587,3.685,0l104.339-60.24
			c1.017-0.587,1.842-2.016,1.842-3.191v-0.734c0-1.175-0.825-2.604-1.842-3.191l-87.056-50.261
			C316.051,287.592,314.401,287.592,313.384,288.179z"/>
		<path id="XMLID_14359_" style="fill:#263238;" d="M207.203,351.611v0.734c0,1.175,0.825,2.604,1.842,3.191l87.056,50.262
			c0.509,0.294,1.175,0.441,1.842,0.441l-0.001-9.356l-86.418-49.894l-2.479,1.431C208.027,349.007,207.203,350.436,207.203,351.611
			z"/>
		<path id="XMLID_14299_" style="fill:#37474F;" d="M209.045,348.419l104.339-60.24c1.018-0.588,2.667-0.588,3.685,0l87.056,50.261
			c1.017,0.588,1.017,1.54,0,2.128l-104.339,60.24c-1.017,0.587-2.667,0.587-3.685,0l-87.056-50.261
			C208.027,349.959,208.027,349.007,209.045,348.419z"/>
		<path id="XMLID_14355_" style="fill:#FFFFFF;" d="M222.008,350.547l67.611,39.035c1.017,0.587,2.667,0.587,3.685,0l91.376-52.756
			c1.017-0.587,1.017-1.54,0-2.128l-67.611-39.036c-1.018-0.587-2.667-0.587-3.685,0l-91.376,52.756
			C220.991,349.007,220.991,349.96,222.008,350.547z"/>
		<path id="XMLID_14357_" style="fill:#27DEBF;" d="M242.85,342.301c4.773-2.756,12.511-2.756,17.284,0
			c4.773,2.756,4.773,7.223,0,9.979c-4.773,2.756-12.511,2.756-17.284,0C238.077,349.524,238.077,345.057,242.85,342.301z"/>
		<path id="XMLID_14434_" style="fill:#27DEBF;" d="M384.68,334.699l-19.763-11.41l-60.011-5.588
			c-3.183-0.297-5.555,2.877-4.368,5.846l10.366,25.936l-33.026-1.887c-2.737-0.156-4.913,2.266-4.463,4.971l5.083,30.596l0,0
			l11.12,6.42c1.017,0.587,2.667,0.587,3.685,0l91.376-52.756C385.698,336.239,385.698,335.286,384.68,334.699z"/>
	</g>
</g>
<g id="Boxes">
	<g id="XMLID_15294_">
		<g id="XMLID_15299_">
			<polygon id="XMLID_15309_" style="fill:#EBEBEB;" points="384.358,262.169 384.358,222.253 436.209,192.317 436.209,232.232 			
				"/>
			<polygon id="XMLID_15308_" style="fill:#E6E6E6;" points="384.358,222.253 319.543,184.833 319.543,224.748 384.358,262.169 			
				"/>
			<polygon id="XMLID_15307_" style="fill:#F0F0F0;" points="384.358,222.253 437.745,191.416 371.395,153.1 318.007,183.937 			"/>
			<polygon id="XMLID_15306_" style="fill:#EBEBEB;" points="384.358,222.253 384.358,232.232 437.745,201.409 437.745,191.416 			
				"/>
			<polygon id="XMLID_15305_" style="fill:#E6E6E6;" points="384.358,232.232 436.209,202.296 436.209,204.49 384.358,234.426 			
				"/>
			<polygon id="XMLID_15304_" style="fill:#EBEBEB;" points="318.007,183.937 384.358,222.253 384.358,232.232 318.007,193.924 			
				"/>
			<polygon id="XMLID_15303_" style="opacity:0.5;fill:#E0E0E0;" points="384.358,232.232 319.543,194.812 319.543,197.005 
				384.357,234.426 			"/>
			<path id="XMLID_15302_" style="fill:#E0E0E0;" d="M401.428,228.32l17.712-10.226c0.763-0.441,1.382-0.083,1.382,0.798v10.473
				c0,0.881-0.619,1.953-1.382,2.393l-17.712,10.226c-0.763,0.441-1.382,0.083-1.382-0.798v-10.472
				C400.046,229.832,400.664,228.76,401.428,228.32z"/>
			<path id="XMLID_15300_" style="fill:#FFFFFF;" d="M402.563,229.507l15.442-8.916c0.509-0.294,0.921-0.056,0.921,0.532v7.851
				c0,0.587-0.412,1.302-0.921,1.596l-15.443,8.915c-0.509,0.294-0.921,0.056-0.921-0.532l0-7.851
				C401.641,230.515,402.054,229.801,402.563,229.507z"/>
		</g>
		<g id="XMLID_14642_">
			<polygon id="XMLID_14429_" style="fill:#EBEBEB;" points="384.358,217.236 384.358,177.321 436.209,147.385 436.209,187.3 			"/>
			<polygon id="XMLID_14432_" style="fill:#E6E6E6;" points="384.358,177.321 319.543,139.9 319.543,179.816 384.358,217.236 			"/>
			<polygon id="XMLID_14436_" style="fill:#F5F5F5;" points="384.358,177.321 437.745,146.484 371.395,108.168 318.007,139.005 			
				"/>
			<polygon id="XMLID_14439_" style="fill:#EBEBEB;" points="384.358,177.321 384.358,187.3 437.745,156.477 437.745,146.484 			"/>
			<polygon id="XMLID_14443_" style="fill:#E6E6E6;" points="384.358,187.3 436.209,157.363 436.209,159.557 384.358,189.494 			"/>
			<polygon id="XMLID_14446_" style="fill:#EBEBEB;" points="318.007,139.005 384.358,177.321 384.358,187.3 318.007,148.992 			"/>
			<polygon id="XMLID_14448_" style="opacity:0.5;fill:#E0E0E0;" points="384.358,187.3 319.543,149.88 319.543,152.073 
				384.357,189.494 			"/>
			<path id="XMLID_14641_" style="fill:#E0E0E0;" d="M401.428,183.387l17.712-10.226c0.763-0.441,1.382-0.083,1.382,0.798v10.473
				c0,0.881-0.619,1.953-1.382,2.393l-17.712,10.226c-0.763,0.441-1.382,0.083-1.382-0.798v-10.472
				C400.046,184.9,400.664,183.828,401.428,183.387z"/>
			<path id="XMLID_14638_" style="fill:#FFFFFF;" d="M402.563,184.575l15.442-8.916c0.509-0.294,0.921-0.056,0.921,0.532v7.851
				c0,0.587-0.412,1.302-0.921,1.596l-15.443,8.915c-0.509,0.294-0.921,0.056-0.921-0.532l0-7.851
				C401.641,185.583,402.054,184.869,402.563,184.575z"/>
		</g>
		<polygon id="XMLID_15310_" style="fill:#E0E0E0;" points="433.413,188.914 384.358,217.236 322.341,181.411 320.824,182.31 
			384.358,218.869 434.937,189.794 		"/>
	</g>
</g>
</svg>
